<svg width="1440" height="800" viewBox="0 0 1440 800" fill="none" xmlns="http://www.w3.org/2000/svg">
<rect width="1440" height="800" fill="#EAF2E6"/>
<path d="M746.831 683.727C746.511 690.163 742.881 696.259 736.737 699.42C730.593 702.58 723.523 701.988 718.095 698.507C718.415 692.07 722.045 685.974 728.189 682.814C734.332 679.653 741.403 680.246 746.831 683.727Z" fill="#5A8E38" stroke="#2F3524" stroke-width="1.54" stroke-miterlimit="10"/>
<path d="M689.36 683.727C689.68 690.163 693.31 696.259 699.454 699.42C705.598 702.58 712.668 701.988 718.096 698.507C717.776 692.07 714.146 685.974 708.002 682.814C701.858 679.653 694.788 680.246 689.36 683.727Z" fill="#5A8E38" stroke="#2F3524" stroke-width="1.54" stroke-miterlimit="10"/>
<path d="M736.194 666.896C735.99 670.948 733.708 674.79 729.839 676.779C725.97 678.768 721.516 678.4 718.103 676.207C718.308 672.154 720.589 668.312 724.458 666.323C728.327 664.335 732.781 664.702 736.194 666.896Z" fill="#5A8E38" stroke="#2F3524" stroke-width="1.54" stroke-miterlimit="10"/>
<path d="M700.006 666.896C700.21 670.948 702.492 674.79 706.36 676.779C710.229 678.768 714.684 678.4 718.096 676.207C717.892 672.154 715.61 668.312 711.741 666.323C707.873 664.335 703.418 664.702 700.006 666.896Z" fill="#5A8E38" stroke="#2F3524" stroke-width="1.54" stroke-miterlimit="10"/>
<path d="M736.194 708.444C735.99 712.497 733.708 716.339 729.839 718.327C725.97 720.316 721.516 719.949 718.103 717.755C718.308 713.703 720.589 709.861 724.458 707.872C728.327 705.883 732.781 706.251 736.194 708.444Z" fill="#5A8E38" stroke="#2F3524" stroke-width="1.54" stroke-miterlimit="10"/>
<path d="M700.006 708.444C700.21 712.497 702.492 716.339 706.36 718.327C710.229 720.316 714.684 719.949 718.096 717.755C717.892 713.703 715.61 709.861 711.741 707.872C707.873 705.883 703.418 706.251 700.006 708.444Z" fill="#5A8E38" stroke="#2F3524" stroke-width="1.54" stroke-miterlimit="10"/>
<path d="M718.093 643.432C714.578 645.468 712.215 649.255 712.215 653.608C712.215 657.96 714.585 661.747 718.093 663.783C721.607 661.747 723.971 657.96 723.971 653.608C723.971 649.255 721.6 645.468 718.093 643.432Z" fill="#5A8E38" stroke="#2F3524" stroke-width="1.54" stroke-miterlimit="10"/>
<path d="M718.096 799.96V663.783" stroke="#2F3524" stroke-width="1.54" stroke-linecap="round" stroke-linejoin="round"/>
<path d="M390.256 238.906C390.038 243.306 387.552 247.474 383.356 249.634C379.154 251.793 374.324 251.391 370.612 249.007C370.83 244.607 373.316 240.438 377.512 238.279C381.715 236.12 386.544 236.522 390.256 238.906Z" fill="#5A8E38" stroke="#2F3524" stroke-width="1.54" stroke-miterlimit="10"/>
<path d="M350.966 238.906C351.184 243.306 353.67 247.474 357.866 249.634C362.062 251.793 366.898 251.391 370.61 249.007C370.392 244.607 367.906 240.438 363.71 238.279C359.508 236.12 354.678 236.522 350.966 238.906Z" fill="#5A8E38" stroke="#2F3524" stroke-width="1.54" stroke-miterlimit="10"/>
<path d="M390.256 257.173C390.038 261.574 387.552 265.742 383.356 267.901C379.154 270.06 374.324 269.658 370.612 267.275C370.83 262.874 373.316 258.706 377.512 256.547C381.708 254.388 386.544 254.79 390.256 257.173Z" fill="#5A8E38" stroke="#2F3524" stroke-width="1.54" stroke-miterlimit="10"/>
<path d="M350.966 257.173C351.184 261.574 353.67 265.742 357.866 267.901C362.062 270.06 366.898 269.658 370.61 267.275C370.392 262.874 367.906 258.706 363.71 256.547C359.508 254.388 354.678 254.79 350.966 257.173Z" fill="#5A8E38" stroke="#2F3524" stroke-width="1.54" stroke-miterlimit="10"/>
<path d="M390.256 275.435C390.038 279.835 387.552 284.004 383.356 286.163C379.154 288.322 374.324 287.92 370.612 285.536C370.83 281.136 373.316 276.968 377.512 274.809C381.708 272.649 386.544 273.051 390.256 275.435Z" fill="#5A8E38" stroke="#2F3524" stroke-width="1.54" stroke-miterlimit="10"/>
<path d="M350.966 275.435C351.184 279.835 353.67 284.004 357.866 286.163C362.069 288.322 366.898 287.92 370.61 285.536C370.392 281.136 367.906 276.968 363.71 274.809C359.514 272.649 354.678 273.051 350.966 275.435Z" fill="#5A8E38" stroke="#2F3524" stroke-width="1.54" stroke-miterlimit="10"/>
<path d="M390.256 293.703C390.038 298.103 387.552 302.271 383.356 304.43C379.154 306.59 374.324 306.188 370.612 303.804C370.83 299.404 373.316 295.235 377.512 293.076C381.708 290.917 386.544 291.319 390.256 293.703Z" fill="#5A8E38" stroke="#2F3524" stroke-width="1.54" stroke-miterlimit="10"/>
<path d="M350.966 293.703C351.184 298.103 353.67 302.271 357.866 304.43C362.069 306.59 366.898 306.188 370.61 303.804C370.392 299.404 367.906 295.235 363.71 293.076C359.508 290.917 354.678 291.319 350.966 293.703Z" fill="#5A8E38" stroke="#2F3524" stroke-width="1.54" stroke-miterlimit="10"/>
<path d="M382.981 227.401C382.845 230.174 381.279 232.796 378.636 234.158C375.993 235.52 372.948 235.262 370.612 233.763C370.748 230.991 372.315 228.369 374.958 227.006C377.601 225.644 380.645 225.903 382.981 227.401Z" fill="#5A8E38" stroke="#2F3524" stroke-width="1.54" stroke-miterlimit="10"/>
<path d="M358.241 227.401C358.377 230.174 359.943 232.796 362.586 234.158C365.229 235.52 368.274 235.262 370.61 233.763C370.474 230.991 368.907 228.369 366.264 227.006C363.622 225.644 360.577 225.903 358.241 227.401Z" fill="#5A8E38" stroke="#2F3524" stroke-width="1.54" stroke-miterlimit="10"/>
<path d="M382.981 320.47C382.845 323.242 381.279 325.864 378.636 327.227C375.993 328.589 372.948 328.33 370.612 326.831C370.748 324.059 372.315 321.437 374.958 320.075C377.601 318.712 380.645 318.971 382.981 320.47Z" fill="#5A8E38" stroke="#2F3524" stroke-width="1.54" stroke-miterlimit="10"/>
<path d="M358.241 320.47C358.377 323.242 359.943 325.864 362.586 327.227C365.229 328.589 368.274 328.33 370.61 326.831C370.474 324.059 368.907 321.437 366.264 320.075C363.622 318.712 360.577 318.971 358.241 320.47Z" fill="#5A8E38" stroke="#2F3524" stroke-width="1.54" stroke-miterlimit="10"/>
<path d="M370.614 211.361C368.217 212.751 366.596 215.339 366.596 218.316C366.596 221.292 368.217 223.88 370.614 225.27C373.012 223.88 374.633 221.292 374.633 218.316C374.633 215.339 373.012 212.751 370.614 211.361Z" fill="#5A8E38" stroke="#2F3524" stroke-width="1.54" stroke-miterlimit="10"/>
<path d="M370.61 504.87V225.27" stroke="#2F3524" stroke-width="1.54" stroke-linecap="round" stroke-linejoin="round"/>
<path d="M590.8 469.99C590.637 473.212 588.825 476.257 585.753 477.837C582.681 479.417 579.146 479.124 576.435 477.381C576.599 474.159 578.411 471.114 581.483 469.534C584.554 467.954 588.089 468.247 590.8 469.99Z" fill="#5A8E38" stroke="#2F3524" stroke-width="1.54" stroke-miterlimit="10"/>
<path d="M562.063 469.99C562.226 473.212 564.038 476.257 567.11 477.837C570.182 479.417 573.717 479.124 576.428 477.381C576.264 474.159 574.452 471.114 571.381 469.534C568.309 467.954 564.774 468.247 562.063 469.99Z" fill="#5A8E38" stroke="#2F3524" stroke-width="1.54" stroke-miterlimit="10"/>
<path d="M594.525 451.464C594.321 455.517 592.039 459.358 588.171 461.347C584.302 463.336 579.847 462.968 576.435 460.775C576.639 456.722 578.921 452.881 582.79 450.892C586.658 448.903 591.113 449.271 594.525 451.464Z" fill="#5A8E38" stroke="#2F3524" stroke-width="1.54" stroke-miterlimit="10"/>
<path d="M558.337 451.464C558.541 455.517 560.823 459.358 564.692 461.347C568.561 463.336 573.015 462.968 576.428 460.775C576.223 456.722 573.942 452.881 570.073 450.892C566.204 448.903 561.75 449.271 558.337 451.464Z" fill="#5A8E38" stroke="#2F3524" stroke-width="1.54" stroke-miterlimit="10"/>
<path d="M576.43 427.992C572.915 430.029 570.551 433.816 570.551 438.168C570.551 442.521 572.922 446.308 576.43 448.344C579.944 446.308 582.308 442.521 582.308 438.168C582.308 433.816 579.937 430.029 576.43 427.992Z" fill="#5A8E38" stroke="#2F3524" stroke-width="1.54" stroke-miterlimit="10"/>
<path d="M576.428 584.5V448.344" stroke="#2F3524" stroke-width="1.54" stroke-linecap="round" stroke-linejoin="round"/>
<path d="M556.275 315.899C556.111 319.12 554.3 322.165 551.228 323.745C548.156 325.325 544.621 325.032 541.91 323.289C542.074 320.067 543.885 317.022 546.957 315.442C550.029 313.862 553.564 314.155 556.275 315.899Z" fill="#5A8E38" stroke="#2F3524" stroke-width="1.54" stroke-miterlimit="10"/>
<path d="M527.537 315.899C527.701 319.12 529.513 322.165 532.585 323.745C535.656 325.325 539.191 325.032 541.902 323.289C541.739 320.067 539.927 317.022 536.855 315.442C533.783 313.862 530.248 314.155 527.537 315.899Z" fill="#5A8E38" stroke="#2F3524" stroke-width="1.54" stroke-miterlimit="10"/>
<path d="M560 297.372C559.796 301.425 557.514 305.266 553.645 307.255C549.776 309.244 545.322 308.876 541.909 306.683C542.114 302.63 544.395 298.789 548.264 296.8C552.133 294.811 556.588 295.179 560 297.372Z" fill="#5A8E38" stroke="#2F3524" stroke-width="1.54" stroke-miterlimit="10"/>
<path d="M523.812 297.372C524.016 301.425 526.298 305.266 530.167 307.255C534.035 309.244 538.49 308.876 541.902 306.683C541.698 302.63 539.416 298.789 535.548 296.8C531.679 294.811 527.224 295.179 523.812 297.372Z" fill="#5A8E38" stroke="#2F3524" stroke-width="1.54" stroke-miterlimit="10"/>
<path d="M541.91 273.908C538.395 275.945 536.031 279.732 536.031 284.084C536.031 288.437 538.402 292.224 541.91 294.26C545.424 292.224 547.788 288.437 547.788 284.084C547.788 279.732 545.417 275.945 541.91 273.908Z" fill="#5A8E38" stroke="#2F3524" stroke-width="1.54" stroke-miterlimit="10"/>
<path d="M541.908 581.327V294.254" stroke="#2F3524" stroke-width="1.54" stroke-linecap="round" stroke-linejoin="round"/>
<path d="M172.894 250.157C172.689 254.21 170.407 258.051 166.539 260.04C162.67 262.029 158.215 261.661 154.803 259.468C155.007 255.416 157.289 251.574 161.158 249.585C165.027 247.596 169.481 247.964 172.894 250.157Z" fill="#5A8E38" stroke="#2F3524" stroke-width="1.54" stroke-miterlimit="10"/>
<path d="M136.705 250.157C136.91 254.21 139.191 258.051 143.06 260.04C146.929 262.029 151.383 261.661 154.796 259.468C154.592 255.416 152.31 251.574 148.441 249.585C144.572 247.596 140.118 247.964 136.705 250.157Z" fill="#5A8E38" stroke="#2F3524" stroke-width="1.54" stroke-miterlimit="10"/>
<path d="M154.798 226.693C151.283 228.73 148.92 232.517 148.92 236.869C148.92 241.222 151.29 245.009 154.798 247.045C158.312 245.009 160.676 241.222 160.676 236.869C160.676 232.517 158.305 228.73 154.798 226.693Z" fill="#5A8E38" stroke="#2F3524" stroke-width="1.54" stroke-miterlimit="10"/>
<path d="M154.796 449.584V247.039" stroke="#2F3524" stroke-width="1.54" stroke-linecap="round" stroke-linejoin="round"/>
<path d="M357.99 368.3C357.793 372.244 355.572 375.976 351.806 377.911C348.046 379.845 343.714 379.484 340.39 377.352C340.588 373.408 342.808 369.676 346.575 367.742C350.341 365.807 354.666 366.168 357.99 368.3Z" fill="#FFDE3E" stroke="#2F3524" stroke-width="1.54" stroke-miterlimit="10"/>
<path d="M322.788 368.3C322.985 372.244 325.205 375.976 328.972 377.911C332.732 379.845 337.064 379.484 340.388 377.352C340.19 373.408 337.97 369.676 334.203 367.742C330.443 365.807 326.111 366.168 322.788 368.3Z" fill="#FFDE3E" stroke="#2F3524" stroke-width="1.54" stroke-miterlimit="10"/>
<path d="M357.99 386.839C357.793 390.783 355.572 394.515 351.806 396.45C348.046 398.384 343.714 398.023 340.39 395.891C340.588 391.948 342.808 388.215 346.575 386.281C350.341 384.346 354.666 384.707 357.99 386.839Z" fill="#FFDE3E" stroke="#2F3524" stroke-width="1.54" stroke-miterlimit="10"/>
<path d="M322.788 386.839C322.985 390.783 325.205 394.515 328.972 396.45C332.732 398.384 337.064 398.023 340.388 395.891C340.19 391.948 337.97 388.215 334.203 386.281C330.443 384.346 326.111 384.707 322.788 386.839Z" fill="#FFDE3E" stroke="#2F3524" stroke-width="1.54" stroke-miterlimit="10"/>
<path d="M357.99 405.386C357.793 409.33 355.572 413.062 351.806 414.997C348.046 416.931 343.714 416.57 340.39 414.438C340.588 410.494 342.808 406.762 346.575 404.828C350.334 402.893 354.666 403.254 357.99 405.386Z" fill="#FFDE3E" stroke="#2F3524" stroke-width="1.54" stroke-miterlimit="10"/>
<path d="M322.788 405.386C322.985 409.33 325.205 413.062 328.972 414.997C332.732 416.931 337.064 416.57 340.388 414.438C340.19 410.494 337.97 406.762 334.203 404.828C330.443 402.893 326.111 403.254 322.788 405.386Z" fill="#FFDE3E" stroke="#2F3524" stroke-width="1.54" stroke-miterlimit="10"/>
<path d="M351.472 355.685C351.349 358.164 349.946 360.521 347.576 361.74C345.205 362.96 342.481 362.728 340.39 361.386C340.512 358.9 341.915 356.55 344.286 355.331C346.656 354.112 349.381 354.343 351.472 355.685Z" fill="#FFDE3E" stroke="#2F3524" stroke-width="1.54" stroke-miterlimit="10"/>
<path d="M329.306 355.685C329.428 358.164 330.832 360.521 333.202 361.74C335.572 362.96 338.297 362.728 340.388 361.386C340.265 358.9 338.862 356.55 336.492 355.331C334.121 354.112 331.397 354.343 329.306 355.685Z" fill="#FFDE3E" stroke="#2F3524" stroke-width="1.54" stroke-miterlimit="10"/>
<path d="M340.392 339.699C338.24 340.946 336.789 343.268 336.789 345.932C336.789 348.595 338.24 350.917 340.392 352.164C342.544 350.917 343.995 348.595 343.995 345.932C343.995 343.268 342.544 340.946 340.392 339.699Z" fill="#FFDE3E" stroke="#2F3524" stroke-width="1.54" stroke-miterlimit="10"/>
<path d="M340.388 583.268V352.156" stroke="#2F3524" stroke-width="1.54" stroke-linecap="round" stroke-linejoin="round"/>
<path d="M103.679 353.955H0.00537109L0.00537109 250.281H103.679L103.679 353.955Z" fill="#AAE882" stroke="#2F3524" stroke-width="2.16" stroke-miterlimit="10"/>
<path d="M20.7026 353.955H78.0327V295.685L49.371 275.02L20.7026 295.685V353.955Z" fill="#5A8E38" stroke="#2F3524" stroke-width="2.16" stroke-miterlimit="10"/>
<path d="M32.1459 353.955H66.5972V342.199C66.5972 336.846 62.2584 332.514 56.9116 332.514H41.8384C36.4848 332.514 32.1528 336.852 32.1528 342.199V353.955H32.1459Z" fill="#2F3524"/>
<path d="M49.3702 279.862L93.6772 306.882V297.333L49.3702 270.312V279.862Z" fill="#5A8E38" stroke="#2F3524" stroke-width="1.66" stroke-linecap="round" stroke-linejoin="round"/>
<path d="M5.05878 306.882L49.3726 279.862V270.312L5.05878 297.333V306.882Z" fill="#5A8E38" stroke="#2F3524" stroke-width="1.66" stroke-linecap="round" stroke-linejoin="round"/>
<path d="M90.5856 334.551L82.8218 342.314L8.12637 267.619L15.8902 259.855L90.5856 334.551Z" fill="#FFDE3E" stroke="#2F3524" stroke-width="2.03" stroke-miterlimit="10"/>
<path d="M15.8961 342.317L8.13232 334.553L82.8277 259.857L90.5915 267.621L15.8961 342.317Z" fill="#FFDE3E" stroke="#2F3524" stroke-width="2.03" stroke-miterlimit="10"/>
<path d="M38.1241 302.938C37.1206 296.756 41.3189 290.93 47.5013 289.927C53.6836 288.923 59.509 293.121 60.5125 299.304C61.5161 305.486 57.3178 311.312 51.1354 312.315C44.953 313.319 39.1277 309.12 38.1241 302.938Z" fill="white" stroke="#2F3524" stroke-width="1.66" stroke-miterlimit="10"/>
<path d="M44.1471 301.961C43.6836 299.106 45.6226 296.416 48.478 295.952C51.3334 295.489 54.0239 297.428 54.4874 300.283C54.9509 303.138 53.0119 305.829 50.1565 306.292C47.3011 306.756 44.6106 304.817 44.1471 301.961Z" fill="#AAE882" stroke="#2F3524" stroke-width="1.66" stroke-miterlimit="10"/>
<path d="M622.044 665.371H518.371V561.697H622.044V665.371Z" stroke="#2F3524" stroke-width="2.16" stroke-miterlimit="10"/>
<path d="M622.052 638.937V665.371C564.797 665.371 518.378 618.952 518.378 561.697H544.812C544.812 604.356 579.393 638.937 622.052 638.937Z" fill="#AAE882" stroke="#2F3524" stroke-width="2.16" stroke-miterlimit="10"/>
<path d="M544.802 561.697H571.236C571.236 589.76 593.986 612.502 622.041 612.502V638.937C579.382 638.937 544.802 604.356 544.802 561.697Z" fill="#FFDE3E" stroke="#2F3524" stroke-width="2.16" stroke-miterlimit="10"/>
<path d="M622.05 586.074V612.508C593.988 612.508 571.245 589.759 571.245 561.703H597.68C597.68 575.162 608.591 586.08 622.057 586.08L622.05 586.074Z" fill="#5A8E38" stroke="#2F3524" stroke-width="2.16" stroke-miterlimit="10"/>
<path d="M597.674 561.697H622.052V586.075C608.586 586.075 597.674 575.163 597.674 561.697Z" fill="white" stroke="#2F3524" stroke-width="2.16" stroke-miterlimit="10"/>
<path d="M103.679 665.371H0.00537109L0.00537109 561.697H103.679L103.679 665.371Z" stroke="#2F3524" stroke-width="2.16" stroke-miterlimit="10"/>
<path d="M103.672 638.937V665.371C46.4167 665.371 -0.00175476 618.952 -0.00175476 561.697H26.4327C26.4327 604.356 61.0132 638.937 103.672 638.937Z" fill="#AAE882" stroke="#2F3524" stroke-width="2.16" stroke-miterlimit="10"/>
<path d="M26.4327 561.697H52.867C52.867 589.76 75.6164 612.502 103.672 612.502V638.937C61.0132 638.937 26.4327 604.356 26.4327 561.697Z" fill="#FFDE3E" stroke="#2F3524" stroke-width="2.16" stroke-miterlimit="10"/>
<path d="M103.67 586.074V612.508C75.6082 612.508 52.8655 589.759 52.8655 561.703H79.2999C79.2999 575.162 90.2115 586.08 103.677 586.08L103.67 586.074Z" fill="#5A8E38" stroke="#2F3524" stroke-width="2.16" stroke-miterlimit="10"/>
<path d="M79.2999 561.697H103.677V586.075C90.2115 586.075 79.2999 575.163 79.2999 561.697Z" fill="white" stroke="#2F3524" stroke-width="2.16" stroke-miterlimit="10"/>
<path d="M311.025 665.371H207.352V561.697H311.025V665.371Z" stroke="#2F3524" stroke-width="2.16" stroke-miterlimit="10"/>
<path d="M311.031 638.937V665.371C253.776 665.371 207.357 618.952 207.357 561.697H233.791C233.791 604.356 268.372 638.937 311.031 638.937Z" fill="#AAE882" stroke="#2F3524" stroke-width="2.16" stroke-miterlimit="10"/>
<path d="M233.781 561.697H260.216C260.216 589.76 282.965 612.502 311.021 612.502V638.937C268.362 638.937 233.781 604.356 233.781 561.697Z" fill="#FFDE3E" stroke="#2F3524" stroke-width="2.16" stroke-miterlimit="10"/>
<path d="M311.029 586.074V612.508C282.967 612.508 260.224 589.759 260.224 561.703H286.659C286.659 575.162 297.57 586.08 311.036 586.08L311.029 586.074Z" fill="#5A8E38" stroke="#2F3524" stroke-width="2.16" stroke-miterlimit="10"/>
<path d="M286.653 561.697H311.031V586.075C297.565 586.075 286.653 575.163 286.653 561.697Z" fill="white" stroke="#2F3524" stroke-width="2.16" stroke-miterlimit="10"/>
<path d="M622.048 638.937V665.371C679.303 665.371 725.722 618.952 725.722 561.697H699.287C699.287 604.356 664.707 638.937 622.048 638.937Z" fill="#AAE882" stroke="#2F3524" stroke-width="2.16" stroke-miterlimit="10"/>
<path d="M699.286 561.697H672.851C672.851 589.76 650.102 612.502 622.046 612.502V638.937C664.705 638.937 699.286 604.356 699.286 561.697Z" fill="#FFDE3E" stroke="#2F3524" stroke-width="2.16" stroke-miterlimit="10"/>
<path d="M622.05 586.074V612.508C650.112 612.508 672.855 589.759 672.855 561.703H646.421C646.421 575.162 635.509 586.08 622.043 586.08L622.05 586.074Z" fill="#5A8E38" stroke="#2F3524" stroke-width="2.16" stroke-miterlimit="10"/>
<path d="M646.419 561.697H622.042V586.075C635.507 586.075 646.419 575.163 646.419 561.697Z" fill="white" stroke="#2F3524" stroke-width="2.16" stroke-miterlimit="10"/>
<path d="M518.365 665.371H414.691V561.697H518.365V665.371Z" fill="#AAE882" stroke="#2F3524" stroke-width="2.16" stroke-miterlimit="10"/>
<path d="M502.852 624.811C502.443 632.944 497.859 640.654 490.094 644.645C482.329 648.637 473.393 647.894 466.534 643.494C466.943 635.355 471.527 627.651 479.292 623.66C487.056 619.669 495.993 620.411 502.852 624.811Z" fill="#5A8E38" stroke="#2F3524" stroke-width="1.66" stroke-miterlimit="10"/>
<path d="M430.216 624.811C430.625 632.944 435.209 640.654 442.974 644.645C450.738 648.637 459.675 647.894 466.534 643.494C466.125 635.355 461.541 627.651 453.776 623.66C446.011 619.669 437.075 620.411 430.216 624.811Z" fill="#5A8E38" stroke="#2F3524" stroke-width="1.66" stroke-miterlimit="10"/>
<path d="M489.399 603.546C489.141 608.668 486.253 613.524 481.362 616.037C476.472 618.551 470.846 618.081 466.527 615.309C466.786 610.187 469.674 605.33 474.565 602.817C479.455 600.304 485.081 600.773 489.399 603.546Z" fill="#5A8E38" stroke="#2F3524" stroke-width="1.66" stroke-miterlimit="10"/>
<path d="M443.667 603.546C443.926 608.668 446.814 613.524 451.704 616.037C456.595 618.551 462.221 618.081 466.539 615.309C466.28 610.187 463.392 605.33 458.502 602.817C453.611 600.304 447.985 600.773 443.667 603.546Z" fill="#5A8E38" stroke="#2F3524" stroke-width="1.66" stroke-miterlimit="10"/>
<path d="M466.537 573.883C462.096 576.451 459.106 581.246 459.106 586.742C459.106 592.239 462.096 597.027 466.537 599.602C470.978 597.034 473.968 592.239 473.968 586.742C473.968 581.246 470.978 576.457 466.537 573.883Z" fill="#5A8E38" stroke="#2F3524" stroke-width="1.66" stroke-miterlimit="10"/>
<path d="M466.534 659.084V599.602" stroke="#2F3524" stroke-width="1.66" stroke-linecap="round" stroke-linejoin="round"/>
<path d="M207.356 665.371H103.682L103.682 561.697H207.356V665.371Z" fill="#AAE882" stroke="#2F3524" stroke-width="2.16" stroke-miterlimit="10"/>
<path d="M139.982 573.883V615.949H151.35V573.883H159.68V615.949H171.055V573.883H179.385V619.729C179.385 624.293 175.687 627.984 171.13 627.984H160.831V665.364H150.213V627.984H139.914C135.351 627.984 131.659 624.286 131.659 619.729V573.883H139.989H139.982Z" fill="#FFDE3E" stroke="#2F3524" stroke-width="1.66" stroke-miterlimit="10"/>
<path d="M145.398 651.572H165.641V665.372H145.398V651.572Z" fill="white" stroke="#2F3524" stroke-width="1.66" stroke-miterlimit="10"/>
<path d="M414.696 665.371H311.022V561.697H414.696V665.371Z" fill="#FFDE3E" stroke="#2F3524" stroke-width="2.16" stroke-miterlimit="10"/>
<path d="M333.27 589.508H336.662V599.616H333.27V589.508Z" fill="#2F3524"/>
<path d="M332.013 594.029H337.918V607.679H332.013V594.029Z" fill="#AAE882" stroke="#2F3524" stroke-width="2.16" stroke-miterlimit="10"/>
<path d="M358.189 582.887H386.967V588.24H358.189V582.887Z" fill="white" stroke="#2F3524" stroke-width="1.66" stroke-miterlimit="10"/>
<path d="M387.398 608.381C397.343 608.381 405.407 616.445 405.407 626.39C405.407 636.334 397.343 644.399 387.398 644.399C377.454 644.399 369.39 636.334 369.39 626.39C369.39 616.445 377.454 608.381 387.398 608.381ZM387.398 638.275C393.964 638.275 399.284 632.956 399.284 626.39C399.284 619.824 393.964 614.504 387.398 614.504C380.832 614.504 375.513 619.824 375.513 626.39C375.513 632.956 380.832 638.275 387.398 638.275Z" fill="#5A8E38" stroke="#2F3524" stroke-width="1.66" stroke-linecap="round" stroke-linejoin="round"/>
<path d="M387.397 631.17C384.756 631.17 382.616 629.03 382.616 626.389C382.616 623.748 384.756 621.607 387.397 621.607C390.038 621.607 392.179 623.748 392.179 626.389C392.179 629.03 390.038 631.17 387.397 631.17Z" fill="#5A8E38" stroke="#2F3524" stroke-width="1.66" stroke-linecap="round" stroke-linejoin="round"/>
<path d="M333.559 617.943C340.86 617.943 346.786 623.862 346.786 631.171C346.786 638.479 340.867 644.398 333.559 644.398C326.25 644.398 320.331 638.479 320.331 631.171C320.331 623.862 326.25 617.943 333.559 617.943ZM333.559 639.903C338.381 639.903 342.291 635.993 342.291 631.171C342.291 626.348 338.381 622.439 333.559 622.439C328.736 622.439 324.827 626.348 324.827 631.171C324.827 635.993 328.736 639.903 333.559 639.903Z" fill="#5A8E38" stroke="#2F3524" stroke-width="1.66" stroke-linecap="round" stroke-linejoin="round"/>
<path d="M333.559 634.618C331.656 634.618 330.113 633.075 330.113 631.171C330.113 629.268 331.656 627.725 333.559 627.725C335.463 627.725 337.006 629.268 337.006 631.171C337.006 633.075 335.463 634.618 333.559 634.618Z" fill="#5A8E38" stroke="#2F3524" stroke-width="1.66" stroke-linecap="round" stroke-linejoin="round"/>
<path d="M333.557 614.703C330.342 614.703 327.359 615.663 324.825 617.257V610.991C324.825 610.991 334.313 602.633 355.891 603.056L360.979 588.234H383.089L386.113 605.14C374.915 605.814 366.02 615.016 366.02 626.384C366.02 628.032 366.244 629.619 366.599 631.166H350.027C350.027 622.073 342.657 614.703 333.564 614.703H333.557Z" fill="#5A8E38" stroke="#2F3524" stroke-width="1.66" stroke-linecap="round" stroke-linejoin="round"/>
<path d="M365.02 592.211H377.682L379.201 600.698H362.105L365.02 592.211Z" fill="#2F3524"/>
<path d="M518.37 769.045H414.697V665.371H518.37V769.045Z" stroke="#2F3524" stroke-width="2.16" stroke-miterlimit="10"/>
<path d="M518.373 742.61V769.045C461.118 769.045 414.699 722.626 414.699 665.371H441.134C441.134 708.03 475.714 742.61 518.373 742.61Z" fill="#AAE882" stroke="#2F3524" stroke-width="2.16" stroke-miterlimit="10"/>
<path d="M441.123 665.371H467.557C467.557 693.433 490.307 716.176 518.362 716.176V742.61C475.704 742.61 441.123 708.03 441.123 665.371Z" fill="#FFDE3E" stroke="#2F3524" stroke-width="2.16" stroke-miterlimit="10"/>
<path d="M518.372 689.748V716.182C490.309 716.182 467.567 693.432 467.567 665.377H494.001C494.001 678.836 504.913 689.754 518.378 689.754L518.372 689.748Z" fill="#5A8E38" stroke="#2F3524" stroke-width="2.16" stroke-miterlimit="10"/>
<path d="M493.996 665.371H518.373V689.748C504.907 689.748 493.996 678.837 493.996 665.371Z" fill="white" stroke="#2F3524" stroke-width="2.16" stroke-miterlimit="10"/>
<path d="M207.356 769.045H103.683L103.683 665.371H207.356V769.045Z" stroke="#2F3524" stroke-width="2.16" stroke-miterlimit="10"/>
<path d="M207.352 742.61V769.045C150.096 769.045 103.678 722.626 103.678 665.371H130.112C130.112 708.03 164.693 742.61 207.352 742.61Z" fill="#AAE882" stroke="#2F3524" stroke-width="2.16" stroke-miterlimit="10"/>
<path d="M130.112 665.371H156.547C156.547 693.433 179.296 716.176 207.352 716.176V742.61C164.693 742.61 130.112 708.03 130.112 665.371Z" fill="#FFDE3E" stroke="#2F3524" stroke-width="2.16" stroke-miterlimit="10"/>
<path d="M207.35 689.748V716.182C179.287 716.182 156.545 693.432 156.545 665.377H182.979C182.979 678.836 193.891 689.754 207.356 689.754L207.35 689.748Z" fill="#5A8E38" stroke="#2F3524" stroke-width="2.16" stroke-miterlimit="10"/>
<path d="M182.979 665.371H207.356V689.748C193.891 689.748 182.979 678.837 182.979 665.371Z" fill="white" stroke="#2F3524" stroke-width="2.16" stroke-miterlimit="10"/>
<path d="M441.131 457.629H414.697C414.697 400.374 461.115 353.955 518.371 353.955V380.389C475.712 380.389 441.131 414.97 441.131 457.629Z" fill="#AAE882" stroke="#2F3524" stroke-width="2.16" stroke-miterlimit="10"/>
<path d="M518.376 380.383V406.817C490.314 406.817 467.571 429.567 467.571 457.622H441.137C441.137 414.963 475.717 380.383 518.376 380.383Z" fill="#FFDE3E" stroke="#2F3524" stroke-width="2.16" stroke-miterlimit="10"/>
<path d="M494 457.629H467.566C467.566 429.567 490.315 406.824 518.371 406.824V433.259C504.912 433.259 493.993 444.17 493.993 457.636L494 457.629Z" fill="#5A8E38" stroke="#2F3524" stroke-width="2.16" stroke-miterlimit="10"/>
<path d="M518.376 433.252V457.629H493.999C493.999 444.164 504.91 433.252 518.376 433.252Z" fill="white" stroke="#2F3524" stroke-width="2.16" stroke-miterlimit="10"/>
<path d="M77.2454 458.023H103.68C103.68 400.768 57.2612 354.35 0.00605774 354.35V380.784C42.6648 380.784 77.2454 415.365 77.2454 458.023Z" fill="#AAE882" stroke="#2F3524" stroke-width="2.16" stroke-miterlimit="10"/>
<path d="M-0.00246429 380.783V407.218C28.0598 407.218 50.8093 429.967 50.8093 458.022H77.2437C77.2437 415.364 42.6631 380.783 0.00435638 380.783H-0.00246429Z" fill="#FFDE3E" stroke="#2F3524" stroke-width="2.16" stroke-miterlimit="10"/>
<path d="M24.3787 458.024H50.813C50.813 429.961 28.0635 407.219 0.00127411 407.219V433.653C13.4671 433.653 24.3787 444.565 24.3787 458.03V458.024Z" fill="#5A8E38" stroke="#2F3524" stroke-width="2.16" stroke-miterlimit="10"/>
<path d="M-0.00044632 433.646V458.024H24.377C24.377 444.558 13.4653 433.646 -0.00044632 433.646Z" fill="white" stroke="#2F3524" stroke-width="2.16" stroke-miterlimit="10"/>
<path d="M518.371 742.61V769.045C575.626 769.045 622.045 722.626 622.045 665.371H595.611C595.611 708.03 561.03 742.61 518.371 742.61Z" fill="#AAE882" stroke="#2F3524" stroke-width="2.16" stroke-miterlimit="10"/>
<path d="M595.609 665.371H569.175C569.175 693.433 546.425 716.176 518.37 716.176V742.61C561.028 742.61 595.609 708.03 595.609 665.371Z" fill="#FFDE3E" stroke="#2F3524" stroke-width="2.16" stroke-miterlimit="10"/>
<path d="M518.373 689.748V716.182C546.436 716.182 569.178 693.432 569.178 665.377H542.744C542.744 678.836 531.832 689.754 518.367 689.754L518.373 689.748Z" fill="#5A8E38" stroke="#2F3524" stroke-width="2.16" stroke-miterlimit="10"/>
<path d="M542.742 665.371H518.365V689.748C531.831 689.748 542.742 678.837 542.742 665.371Z" fill="white" stroke="#2F3524" stroke-width="2.16" stroke-miterlimit="10"/>
<path d="M311.019 769.045H207.345V665.371H311.019V769.045Z" fill="#FFDE3E" stroke="#2F3524" stroke-width="2.16" stroke-miterlimit="10"/>
<path d="M257.628 698.405C257.628 698.405 255.693 687.166 266.005 680.26" stroke="#2F3524" stroke-width="1.66" stroke-linecap="round" stroke-linejoin="round"/>
<path d="M226.169 721.141C226.169 739.374 240.949 754.155 259.183 754.155C277.416 754.155 292.197 739.374 292.197 721.141C292.197 702.907 277.416 693.678 259.183 693.678C240.949 693.678 226.169 702.907 226.169 721.141Z" fill="#5A8E38" stroke="#2F3524" stroke-width="1.66" stroke-miterlimit="10"/>
<path d="M234.341 686.457C235.015 691.545 238.291 696.143 243.372 698.248C248.453 700.352 254.018 699.426 258.098 696.313C257.424 691.225 254.148 686.628 249.067 684.523C243.985 682.418 238.421 683.345 234.341 686.457Z" fill="#AAE882" stroke="#2F3524" stroke-width="1.66" stroke-miterlimit="10"/>
<path d="M311.025 457.629H207.352V353.955H311.025V457.629Z" stroke="#2F3524" stroke-width="2.16" stroke-miterlimit="10"/>
<path d="M311.031 431.194V457.629C253.776 457.629 207.357 411.21 207.357 353.955H233.791C233.791 396.614 268.372 431.194 311.031 431.194Z" fill="#AAE882" stroke="#2F3524" stroke-width="2.16" stroke-miterlimit="10"/>
<path d="M233.781 353.955H260.216C260.216 382.017 282.965 404.76 311.021 404.76V431.194C268.362 431.194 233.781 396.614 233.781 353.955Z" fill="#FFDE3E" stroke="#2F3524" stroke-width="2.16" stroke-miterlimit="10"/>
<path d="M311.029 378.326V404.76C282.967 404.76 260.224 382.011 260.224 353.955H286.659C286.659 367.414 297.57 378.332 311.036 378.332L311.029 378.326Z" fill="#5A8E38" stroke="#2F3524" stroke-width="2.16" stroke-miterlimit="10"/>
<path d="M286.653 353.955H311.031V378.332C297.565 378.332 286.653 367.421 286.653 353.955Z" fill="white" stroke="#2F3524" stroke-width="2.16" stroke-miterlimit="10"/>
<path d="M207.356 457.629H103.682L103.682 353.955H207.356V457.629Z" fill="#FFDE3E" stroke="#2F3524" stroke-width="2.16" stroke-miterlimit="10"/>
<path d="M153.962 386.989C153.962 386.989 152.028 375.75 162.34 368.844" stroke="#2F3524" stroke-width="1.66" stroke-linecap="round" stroke-linejoin="round"/>
<path d="M122.503 409.719C122.503 427.952 137.284 442.733 155.517 442.733C173.751 442.733 188.531 427.952 188.531 409.719C188.531 391.485 173.751 382.256 155.517 382.256C137.284 382.256 122.503 391.485 122.503 409.719Z" fill="#5A8E38" stroke="#2F3524" stroke-width="1.66" stroke-miterlimit="10"/>
<path d="M130.675 375.041C131.349 380.129 134.626 384.727 139.707 386.832C144.788 388.936 150.353 388.01 154.433 384.897C153.758 379.809 150.482 375.212 145.401 373.107C140.32 371.002 134.755 371.929 130.675 375.041Z" fill="#AAE882" stroke="#2F3524" stroke-width="1.66" stroke-miterlimit="10"/>
<path d="M414.696 769.045H311.022V665.371H414.696V769.045Z" fill="#AAE882" stroke="#2F3524" stroke-width="2.16" stroke-miterlimit="10"/>
<path d="M362.863 677.557C362.863 677.557 388.718 686.697 388.718 706.286V728.579C388.718 732.843 386.437 736.78 382.731 738.892L369.293 746.561V763.358H356.426V746.561L342.988 738.892C339.282 736.78 337.001 732.843 337.001 728.579V706.286C337.001 686.697 362.863 677.557 362.863 677.557Z" fill="#FFDE3E" stroke="#2F3524" stroke-width="1.66" stroke-miterlimit="10"/>
<path d="M353.884 760.088H371.839V769.045H353.884V760.088Z" fill="white" stroke="#2F3524" stroke-width="1.66" stroke-miterlimit="10"/>
<path d="M311.019 561.5H207.345V457.826H311.019V561.5Z" fill="#FFDE3E" stroke="#2F3524" stroke-width="2.16" stroke-miterlimit="10"/>
<path d="M257.628 490.86C257.628 490.86 255.693 479.621 266.005 472.715" stroke="#2F3524" stroke-width="1.66" stroke-linecap="round" stroke-linejoin="round"/>
<path d="M226.169 513.596C226.169 531.829 240.949 546.61 259.183 546.61C277.416 546.61 292.197 531.829 292.197 513.596C292.197 495.362 277.416 486.133 259.183 486.133C240.949 486.133 226.169 495.362 226.169 513.596Z" fill="#5A8E38" stroke="#2F3524" stroke-width="1.66" stroke-miterlimit="10"/>
<path d="M234.341 478.912C235.015 484 238.291 488.598 243.372 490.703C248.453 492.807 254.018 491.881 258.098 488.768C257.424 483.68 254.148 479.083 249.067 476.978C243.985 474.873 238.421 475.8 234.341 478.912Z" fill="#AAE882" stroke="#2F3524" stroke-width="1.66" stroke-miterlimit="10"/>
<path d="M414.696 561.5H311.022V457.826H414.696V561.5Z" fill="#AAE882" stroke="#2F3524" stroke-width="2.16" stroke-miterlimit="10"/>
<path d="M362.863 470.012C362.863 470.012 388.718 479.152 388.718 498.741V521.035C388.718 525.298 386.437 529.235 382.731 531.347L369.293 539.016V555.813H356.426V539.016L342.988 531.347C339.282 529.235 337.001 525.298 337.001 521.035V498.741C337.001 479.152 362.863 470.012 362.863 470.012Z" fill="#FFDE3E" stroke="#2F3524" stroke-width="1.66" stroke-miterlimit="10"/>
<path d="M353.884 552.543H371.839V561.5H353.884V552.543Z" fill="white" stroke="#2F3524" stroke-width="1.66" stroke-miterlimit="10"/>
<path d="M103.679 769.045H0.00537109L0.00537109 665.371H103.679L103.679 769.045Z" fill="#AAE882" stroke="#2F3524" stroke-width="2.16" stroke-miterlimit="10"/>
<path d="M20.7026 769.045H78.0327V710.775L49.371 690.109L20.7026 710.775V769.045Z" fill="#5A8E38" stroke="#2F3524" stroke-width="2.16" stroke-miterlimit="10"/>
<path d="M32.1459 769.043H66.5972V757.287C66.5972 751.933 62.2584 747.602 56.9116 747.602H41.8384C36.4848 747.602 32.1528 751.94 32.1528 757.287V769.043H32.1459Z" fill="#2F3524"/>
<path d="M49.3702 694.952L93.6772 721.972V712.429L49.3702 685.402V694.952Z" fill="#5A8E38" stroke="#2F3524" stroke-width="1.66" stroke-linecap="round" stroke-linejoin="round"/>
<path d="M5.05878 721.972L49.3726 694.952V685.402L5.05878 712.429V721.972Z" fill="#5A8E38" stroke="#2F3524" stroke-width="1.66" stroke-linecap="round" stroke-linejoin="round"/>
<path d="M90.5963 749.642L82.8325 757.406L8.13706 682.711L15.9009 674.947L90.5963 749.642Z" fill="#FFDE3E" stroke="#2F3524" stroke-width="2.03" stroke-miterlimit="10"/>
<path d="M15.9015 757.402L8.1377 749.639L82.8332 674.943L90.597 682.707L15.9015 757.402Z" fill="#FFDE3E" stroke="#2F3524" stroke-width="2.03" stroke-miterlimit="10"/>
<path d="M45.0298 726.656C39.2432 724.259 36.4954 717.625 38.8922 711.839C41.2891 706.052 47.923 703.304 53.7096 705.701C59.4961 708.098 62.244 714.732 59.8471 720.518C57.4503 726.305 50.8163 729.053 45.0298 726.656Z" fill="white" stroke="#2F3524" stroke-width="1.66" stroke-miterlimit="10"/>
<path d="M47.3673 721.018C44.6947 719.911 43.4256 716.847 44.5327 714.174C45.6397 711.501 48.7036 710.232 51.3762 711.339C54.0487 712.446 55.3179 715.51 54.2109 718.183C53.1039 720.855 50.0399 722.125 47.3673 721.018Z" fill="#AAE882" stroke="#2F3524" stroke-width="1.66" stroke-miterlimit="10"/>
<path d="M103.679 561.697H0.00537109L0.00537109 458.024H103.679L103.679 561.697Z" fill="#FFDE3E" stroke="#2F3524" stroke-width="2.16" stroke-miterlimit="10"/>
<path d="M44.8826 475.255C48.5061 470.855 55.1607 470.855 58.7843 475.255C65.6296 483.558 69.9683 495.839 69.9683 509.563C69.9683 527.497 62.5576 542.959 51.83 550.315C41.1023 542.952 33.6917 527.497 33.6917 509.563C33.6917 495.839 38.0305 483.565 44.8757 475.255H44.8826Z" fill="#AAE882" stroke="#2F3524" stroke-width="2.16" stroke-miterlimit="10"/>
<path d="M51.6279 551.596C55.0063 539.99 30.2678 519.277 31.8957 500.525C11.3871 531.557 31.1057 562.392 51.6279 551.596Z" fill="#5A8E38" stroke="#2F3524" stroke-width="1.9" stroke-linecap="round" stroke-linejoin="round"/>
<path d="M52.436 551.596C49.0576 539.99 73.796 519.277 72.1681 500.525C92.6767 531.557 72.9582 562.392 52.436 551.596Z" fill="#5A8E38" stroke="#2F3524" stroke-width="1.9" stroke-linecap="round" stroke-linejoin="round"/>
<path d="M33.984 503.488C33.984 506.819 69.6816 507.037 69.6816 503.488" stroke="#2F3524" stroke-width="1.52" stroke-miterlimit="10"/>
<path d="M40.8313 487.229C40.8313 489.279 62.8384 489.415 62.8384 487.229" stroke="#2F3524" stroke-width="1.52" stroke-miterlimit="10" stroke-linecap="round"/>
<path d="M40.8313 524.363C40.8313 526.413 62.8384 526.55 62.8384 524.363" stroke="#2F3524" stroke-width="1.52" stroke-miterlimit="10" stroke-linecap="round"/>
<path d="M51.8394 547.278V472.041" stroke="#2F3524" stroke-width="1.52" stroke-miterlimit="10"/>
<path d="M207.356 561.5H103.682L103.682 457.826H207.356V561.5Z" fill="#AAE882" stroke="#2F3524" stroke-width="2.16" stroke-miterlimit="10"/>
<path d="M191.835 519.469C191.427 527.602 186.843 535.312 179.078 539.304C171.313 543.295 162.377 542.552 155.518 538.152C155.927 530.013 160.511 522.31 168.275 518.318C176.04 514.327 184.977 515.069 191.835 519.469Z" fill="#5A8E38" stroke="#2F3524" stroke-width="1.66" stroke-miterlimit="10"/>
<path d="M119.2 519.469C119.609 527.602 124.193 535.312 131.958 539.304C139.722 543.295 148.659 542.552 155.518 538.152C155.109 530.013 150.525 522.31 142.76 518.318C134.995 514.327 126.059 515.069 119.2 519.469Z" fill="#5A8E38" stroke="#2F3524" stroke-width="1.66" stroke-miterlimit="10"/>
<path d="M178.383 498.198C178.124 503.32 175.236 508.176 170.346 510.69C165.456 513.203 159.83 512.733 155.511 509.961C155.77 504.839 158.658 499.983 163.548 497.469C168.439 494.956 174.065 495.426 178.383 498.198Z" fill="#5A8E38" stroke="#2F3524" stroke-width="1.66" stroke-miterlimit="10"/>
<path d="M132.651 498.198C132.91 503.32 135.798 508.176 140.688 510.69C145.579 513.203 151.205 512.733 155.523 509.961C155.264 504.839 152.376 499.983 147.486 497.469C142.595 494.956 136.969 495.426 132.651 498.198Z" fill="#5A8E38" stroke="#2F3524" stroke-width="1.66" stroke-miterlimit="10"/>
<path d="M155.521 468.541C151.08 471.109 148.09 475.904 148.09 481.401C148.09 486.897 151.08 491.686 155.521 494.26C159.962 491.692 162.952 486.897 162.952 481.401C162.952 475.904 159.962 471.116 155.521 468.541Z" fill="#5A8E38" stroke="#2F3524" stroke-width="1.66" stroke-miterlimit="10"/>
<path d="M155.518 553.736V494.254" stroke="#2F3524" stroke-width="1.66" stroke-linecap="round" stroke-linejoin="round"/>
<path d="M1337.13 230.8C1336.83 224.85 1333.48 219.21 1327.8 216.29C1322.12 213.37 1315.58 213.91 1310.57 217.13C1310.87 223.08 1314.22 228.72 1319.9 231.64C1325.58 234.56 1332.12 234.02 1337.13 230.8Z" fill="#5A8E38" stroke="#2F3524" stroke-width="1.54" stroke-miterlimit="10"/>
<path d="M1284 230.8C1284.3 224.85 1287.65 219.21 1293.33 216.29C1299.01 213.37 1305.55 213.91 1310.56 217.13C1310.26 223.08 1306.91 228.72 1301.23 231.64C1295.55 234.56 1289.01 234.02 1284 230.8Z" fill="#5A8E38" stroke="#2F3524" stroke-width="1.54" stroke-miterlimit="10"/>
<path d="M1310.57 265.249C1305.41 262.259 1301.94 256.699 1301.94 250.309C1301.94 243.919 1305.42 238.359 1310.57 235.369C1315.73 238.359 1319.2 243.919 1319.2 250.309C1319.2 256.699 1315.72 262.259 1310.57 265.249Z" fill="#5A8E38" stroke="#2F3524" stroke-width="1.54" stroke-miterlimit="10"/>
<path d="M1310.57 -62V235.37" stroke="#2F3524" stroke-width="1.54" stroke-linecap="round" stroke-linejoin="round"/>
<path d="M1428.82 307.241C1428.53 301.451 1425.27 295.971 1419.74 293.131C1414.22 290.291 1407.86 290.821 1402.98 293.951C1403.27 299.741 1406.53 305.221 1412.06 308.061C1417.58 310.901 1423.94 310.371 1428.82 307.241Z" fill="#FFDE3E" stroke="#2F3524" stroke-width="1.54" stroke-miterlimit="10"/>
<path d="M1377.13 307.241C1377.42 301.451 1380.68 295.971 1386.21 293.131C1391.73 290.291 1398.09 290.821 1402.97 293.951C1402.68 299.741 1399.42 305.221 1393.89 308.061C1388.37 310.901 1382.01 310.371 1377.13 307.241Z" fill="#FFDE3E" stroke="#2F3524" stroke-width="1.54" stroke-miterlimit="10"/>
<path d="M1428.82 280.02C1428.53 274.23 1425.27 268.75 1419.74 265.91C1414.22 263.07 1407.86 263.6 1402.98 266.73C1403.27 272.52 1406.53 278 1412.06 280.84C1417.58 283.68 1423.94 283.15 1428.82 280.02Z" fill="#FFDE3E" stroke="#2F3524" stroke-width="1.54" stroke-miterlimit="10"/>
<path d="M1377.13 280.02C1377.42 274.23 1380.68 268.75 1386.21 265.91C1391.73 263.07 1398.09 263.6 1402.97 266.73C1402.68 272.52 1399.42 278 1393.89 280.84C1388.37 283.68 1382.01 283.15 1377.13 280.02Z" fill="#FFDE3E" stroke="#2F3524" stroke-width="1.54" stroke-miterlimit="10"/>
<path d="M1428.82 252.791C1428.53 247.001 1425.27 241.521 1419.74 238.681C1414.22 235.841 1407.86 236.371 1402.98 239.501C1403.27 245.291 1406.53 250.771 1412.06 253.611C1417.58 256.451 1423.94 255.921 1428.82 252.791Z" fill="#FFDE3E" stroke="#2F3524" stroke-width="1.54" stroke-miterlimit="10"/>
<path d="M1377.13 252.791C1377.42 247.001 1380.68 241.521 1386.21 238.681C1391.73 235.841 1398.09 236.371 1402.97 239.501C1402.68 245.291 1399.42 250.771 1393.89 253.611C1388.37 256.451 1382.01 255.921 1377.13 252.791Z" fill="#FFDE3E" stroke="#2F3524" stroke-width="1.54" stroke-miterlimit="10"/>
<path d="M1419.25 325.761C1419.07 322.121 1417.01 318.661 1413.53 316.871C1410.05 315.081 1406.05 315.421 1402.98 317.391C1403.16 321.041 1405.22 324.491 1408.7 326.281C1412.18 328.071 1416.18 327.731 1419.25 325.761Z" fill="#FFDE3E" stroke="#2F3524" stroke-width="1.54" stroke-miterlimit="10"/>
<path d="M1386.7 325.761C1386.88 322.121 1388.94 318.661 1392.42 316.871C1395.9 315.081 1399.9 315.421 1402.97 317.391C1402.79 321.041 1400.73 324.491 1397.25 326.281C1393.77 328.071 1389.77 327.731 1386.7 325.761Z" fill="#FFDE3E" stroke="#2F3524" stroke-width="1.54" stroke-miterlimit="10"/>
<path d="M1402.97 349.241C1399.81 347.411 1397.68 344.001 1397.68 340.091C1397.68 336.181 1399.81 332.771 1402.97 330.941C1406.13 332.771 1408.26 336.181 1408.26 340.091C1408.26 344.001 1406.13 347.411 1402.97 349.241Z" fill="#FFDE3E" stroke="#2F3524" stroke-width="1.54" stroke-miterlimit="10"/>
<path d="M1402.98 -8.36914V330.941" stroke="#2F3524" stroke-width="1.54" stroke-linecap="round" stroke-linejoin="round"/>
</svg>
