<svg width="142" height="117" viewBox="0 0 142 117" fill="none" xmlns="http://www.w3.org/2000/svg">
<path d="M43.7943 69.0122C44.4473 68.3593 44.4473 67.271 43.7943 66.6181L38.5708 61.3946L45.3179 54.6475C45.9708 53.9946 45.9708 52.9063 45.3179 52.2534C44.6649 51.6004 43.5767 51.6004 42.9237 52.2534L36.1767 59.0004L30.0826 52.9063C29.4296 52.2534 28.3414 52.2534 27.6884 52.9063C27.0355 53.5593 27.0355 54.6475 27.6884 55.3004L33.7826 61.3946L27.6884 67.4887C27.0355 68.1416 27.0355 69.2298 27.6884 69.8828C28.3414 70.5357 29.4296 70.5357 30.0826 69.8828L36.1767 63.7887L41.4002 69.0122C42.2708 69.6651 43.1414 69.6651 43.7943 69.0122Z" fill="#ADADAD"/>
<path d="M43.1412 90.5594C42.4883 91.2123 42.4883 92.3005 43.3589 92.9535C44.0118 93.6064 45.1 93.6064 45.753 92.7358C56.4177 80.9829 74.7 81.2006 85.1471 92.0829C85.8 92.7358 86.8883 92.7358 87.5412 92.0829C88.1941 91.43 88.1941 90.3417 87.5412 89.6888C75.5706 77.5005 55.1118 77.2829 43.1412 90.5594Z" fill="#ADADAD"/>
<path d="M124.541 103.618L130.2 45.9419C130.418 43.5478 129.547 41.1537 128.024 39.4125C126.5 37.6713 124.106 36.5831 121.712 36.5831V21.5654C121.712 15.9066 117.359 11.336 111.7 11.1184L20.0706 9.8125C14.1941 9.8125 9.84121 14.3831 9.62356 19.8243V23.7419C7.0118 24.3949 5.05297 26.136 3.96474 28.7478C2.65885 30.2713 1.78827 32.2301 1.35297 33.7537C0.264737 37.6713 0.482384 41.8066 0.917678 45.9419C2.65885 65.0949 4.40003 84.0302 5.92356 103.183C6.5765 111.454 8.75297 114.936 20.7236 115.589C54.8941 117.33 89.0647 117.113 123.235 116.46C124.541 116.46 126.065 116.46 127.153 115.807C128.459 115.154 129.329 113.848 129.112 112.542C128.459 109.713 123.671 110.148 120.841 109.93C122.8 108.624 124.106 106.448 124.541 103.618ZM20.0706 13.2949L111.7 14.6007C115.4 14.6007 118.665 17.8654 118.447 21.5654V36.8007H86.453C84.0589 36.8007 81.6647 35.7125 79.9236 33.9713L74.9177 28.3125C72.3059 25.4831 68.6059 23.7419 64.6883 23.7419H12.8883V20.2596C12.8883 16.1243 16.153 13.0772 20.0706 13.2949ZM116.053 108.189H17.8941C15.2824 108.189 12.8883 106.23 12.6706 103.401L6.35885 32.4478C6.14121 29.4007 8.53532 26.789 11.5824 26.789H64.6883C67.7353 26.789 70.5647 28.0949 72.5236 30.2713L77.5294 35.9301C79.7059 38.5419 82.9706 40.0654 86.453 40.0654H121.712C123.235 40.0654 124.541 40.7184 125.629 41.8066C126.718 42.8949 127.153 44.4184 126.935 45.7243L121.276 103.401C121.059 106.013 118.665 108.189 116.053 108.189Z" fill="#ADADAD"/>
<path d="M93.2002 58.5649L97.9884 53.7766C98.6414 53.1237 98.6414 52.0354 97.9884 51.3825C97.3355 50.7296 96.2472 50.7296 95.5943 51.3825L90.8061 56.1707L84.7119 50.0766C84.059 49.4237 82.9708 49.4237 82.3178 50.0766C81.6649 50.7296 81.6649 51.8178 82.3178 52.4707L88.4119 58.5649L82.7531 64.2237C82.1002 64.8766 82.1002 65.9649 82.7531 66.6178C83.4061 67.2707 84.4943 67.2707 85.1472 66.6178L90.8061 60.959L96.9002 67.0531C97.5531 67.706 98.6414 67.706 99.2943 67.0531C99.9472 66.4002 99.9472 65.3119 99.2943 64.659L93.2002 58.5649Z" fill="#ADADAD"/>
<path d="M122.8 1.54161C120.841 4.15338 119.318 6.76514 118.229 9.8122C118.012 10.6828 118.447 11.5534 119.318 11.771C120.188 11.9887 121.059 11.5534 121.276 10.6828C122.147 8.07102 123.453 5.45926 125.194 3.28279C125.847 2.62985 125.629 1.54161 124.976 0.888672C124.323 0.888672 123.453 0.888671 122.8 1.54161Z" fill="#ADADAD"/>
<path d="M136.729 7.85301C136.294 7.20007 135.206 6.76478 134.553 7.41772L124.323 13.9471C123.67 14.3824 123.453 15.4707 123.888 16.1236C124.323 16.7765 125.412 17.2118 126.065 16.5589L136.294 10.0295C136.947 9.59419 137.165 8.50595 136.729 7.85301Z" fill="#ADADAD"/>
<path d="M139.777 19.6064L128.241 20.477C127.371 20.477 126.718 21.3476 126.718 22.2182C126.718 23.0888 127.588 23.7417 128.459 23.7417L139.994 22.8712C140.865 22.8712 141.518 22.0006 141.518 21.13C141.3 20.2594 140.647 19.6064 139.777 19.6064Z" fill="#ADADAD"/>
</svg>
