<svg width="459" height="510" viewBox="0 0 459 510" fill="none" xmlns="http://www.w3.org/2000/svg">
<g filter="url(#filter0_d_323_999)">
<rect x="18" y="37" width="423" height="467" rx="10" fill="#76B33F"/>
</g>
<g filter="url(#filter1_d_323_999)">
<rect x="11" y="15" width="437" height="477" rx="10" fill="white"/>
</g>
<g filter="url(#filter2_d_323_999)">
<rect x="4" y="2" width="451" height="477" rx="10" fill="white"/>
</g>
<path d="M439.954 86.2406C432.524 84.4341 427.443 81.2998 421.719 76.7076L424.141 73.084C430.152 78.673 432.123 81.6993 439.635 81.2628L439.954 86.2406Z" fill="#FFB900"/>
<path d="M369.043 138.967C363.514 133.918 361.044 128.734 358.996 121.926L363.711 119.73C365.331 127.579 365.036 131.24 372.189 134.28L369.043 138.967Z" fill="#007BFF"/>
<path d="M387.441 256.308C379.616 257.674 373.107 256.89 365.128 255.046L365.113 250.788C373.959 253.418 377.586 255.361 384.119 251.933L387.441 256.308Z" fill="#00FFC3"/>
<path d="M439.093 43.2445C435.393 46.9378 431.238 48.9127 425.647 50.8309L423.248 48.4061C429.775 46.6139 432.935 46.3729 434.738 41.9844L439.093 43.2445Z" fill="#FF5C33"/>
<path d="M24.1076 222.426C15.3185 222.737 8.73667 221.029 1 218.033L2.59454 213.674C10.9506 217.594 14.0488 220.086 22.2496 217.486L24.1076 222.426Z" fill="#007BFF"/>
<path d="M279.247 56.1463C272.541 52.7238 269.028 48.5275 265.67 42.7626L270.236 39.7607C272.36 44.4309 273.185 47.4959 276.1 49.3625C277.431 50.2151 279.198 50.8179 281.725 51.209L279.247 56.1463Z" fill="#00FFC3"/>
<path d="M141.587 172.213C133.988 175.938 126.82 177.022 117.641 177.427L115.742 172.968C126.178 173.133 130.839 174.108 136.169 168.601L141.587 172.213Z" fill="#007BFF"/>
<path d="M166.648 59.0913C159.026 62.2382 152.045 62.8726 143.193 62.7398L141.75 58.3479C151.762 59.0998 156.158 60.3009 161.753 55.3125L166.648 59.0913Z" fill="#FFB900"/>
<path d="M127.108 14.9194C120.759 12.7186 116.648 9.5344 112.148 5.00825L114.736 2C119.369 7.43097 120.738 10.2672 127.436 10.4908L127.108 14.9194Z" fill="#00FFC3"/>
<path d="M374.483 54.621C379.02 51.85 381.537 48.2315 384.048 43.1913L381.273 40.2705C378.872 46.2594 378.454 49.3064 373.172 50.0533L374.483 54.621Z" fill="#FF5C33"/>
<path d="M127.183 255.218C125.817 254.646 124.551 254.039 123.365 253.389C123.982 252.179 124.566 250.962 125.121 249.74C125.971 249.945 126.924 250.098 128.001 250.198L127.183 255.218ZM122.389 252.835C117.983 250.245 114.655 247.026 111.152 242.934L114.401 239.681C118.151 244.834 119.727 247.989 124.014 249.423C123.882 249.721 123.746 250.02 123.607 250.318C123.218 251.161 122.81 252 122.389 252.835Z" fill="#FD7555"/>
<path d="M78.3271 100.179C78.3271 101.323 77.0052 102.251 75.3765 102.251C73.7477 102.251 72.4258 101.323 72.4258 100.179C72.4258 99.035 73.7477 98.1074 75.3765 98.1074C77.0052 98.1074 78.3271 99.035 78.3271 100.179Z" fill="#FF5C33"/>
<path d="M355.714 175.114C355.714 176.258 354.392 177.186 352.763 177.186C351.131 177.186 349.812 176.258 349.812 175.114C349.812 173.97 351.131 173.042 352.763 173.042C354.392 173.042 355.714 173.97 355.714 175.114Z" fill="#FFB900"/>
<path d="M455.362 168.85C455.362 169.995 454.04 170.922 452.412 170.922C450.783 170.922 449.461 169.995 449.461 168.85C449.461 167.706 450.783 166.778 452.412 166.778C454.04 166.778 455.362 167.706 455.362 168.85Z" fill="#FF5C33"/>
<path d="M306.054 49.5143C306.054 50.6584 304.732 51.5863 303.103 51.5863C301.474 51.5863 300.152 50.6584 300.152 49.5143C300.152 48.37 301.474 47.4424 303.103 47.4424C304.732 47.4424 306.054 48.37 306.054 49.5143Z" fill="#00FFC3"/>
<path d="M30.7187 37.2347L24.8174 41.3786L18.916 37.2347L24.8174 33.0908L30.7187 37.2347Z" fill="#FFB900"/>
<path d="M427.404 128.316L421.503 132.46L415.602 128.316L421.503 124.172L427.404 128.316Z" fill="#00FFC3"/>
<g opacity="0.5" filter="url(#filter3_dd_323_999)">
<circle cx="230.669" cy="156.981" r="88.3486" fill="url(#paint0_linear_323_999)" fill-opacity="0.6" shape-rendering="crispEdges"/>
</g>
<g opacity="0.5" filter="url(#filter4_dd_323_999)">
<circle cx="230" cy="156" r="102" stroke="#66DA64" stroke-opacity="0.5" stroke-width="10" shape-rendering="crispEdges"/>
</g>
<path d="M171.957 339.094H176.045V352.246C176.045 353.777 175.717 355.067 175.061 356.115C174.413 357.163 173.516 357.952 172.367 358.48C171.228 359.009 169.915 359.273 168.43 359.273C166.944 359.273 165.622 359.009 164.465 358.48C163.316 357.952 162.414 357.163 161.758 356.115C161.111 355.067 160.787 353.777 160.787 352.246V339.094H164.889V352.246C164.889 353.139 165.03 353.868 165.312 354.434C165.595 354.999 166.001 355.413 166.529 355.678C167.067 355.942 167.701 356.074 168.43 356.074C169.177 356.074 169.811 355.942 170.33 355.678C170.859 355.413 171.26 354.999 171.533 354.434C171.816 353.868 171.957 353.139 171.957 352.246V339.094ZM187.174 354.912C187.174 354.63 187.092 354.374 186.928 354.146C186.764 353.919 186.458 353.709 186.012 353.518C185.574 353.317 184.941 353.135 184.111 352.971C183.364 352.807 182.667 352.602 182.02 352.355C181.382 352.1 180.826 351.795 180.352 351.439C179.887 351.084 179.522 350.665 179.258 350.182C178.993 349.689 178.861 349.129 178.861 348.5C178.861 347.88 178.993 347.297 179.258 346.75C179.531 346.203 179.919 345.72 180.42 345.301C180.93 344.872 181.55 344.54 182.279 344.303C183.018 344.057 183.847 343.934 184.768 343.934C186.053 343.934 187.156 344.139 188.076 344.549C189.006 344.959 189.717 345.524 190.209 346.244C190.71 346.955 190.961 347.766 190.961 348.678H187.023C187.023 348.295 186.941 347.953 186.777 347.652C186.622 347.342 186.376 347.101 186.039 346.928C185.711 346.745 185.283 346.654 184.754 346.654C184.316 346.654 183.938 346.732 183.619 346.887C183.3 347.033 183.054 347.233 182.881 347.488C182.717 347.734 182.635 348.008 182.635 348.309C182.635 348.536 182.68 348.742 182.771 348.924C182.872 349.097 183.031 349.257 183.25 349.402C183.469 349.548 183.751 349.685 184.098 349.812C184.453 349.931 184.891 350.04 185.41 350.141C186.477 350.359 187.429 350.646 188.268 351.002C189.106 351.348 189.771 351.822 190.264 352.424C190.756 353.016 191.002 353.796 191.002 354.762C191.002 355.418 190.856 356.02 190.564 356.566C190.273 357.113 189.854 357.592 189.307 358.002C188.76 358.403 188.104 358.717 187.338 358.945C186.581 359.164 185.729 359.273 184.781 359.273C183.405 359.273 182.238 359.027 181.281 358.535C180.333 358.043 179.613 357.419 179.121 356.662C178.638 355.896 178.396 355.113 178.396 354.311H182.129C182.147 354.848 182.284 355.281 182.539 355.609C182.803 355.938 183.136 356.174 183.537 356.32C183.947 356.466 184.389 356.539 184.863 356.539C185.374 356.539 185.798 356.471 186.135 356.334C186.472 356.188 186.727 355.997 186.9 355.76C187.083 355.514 187.174 355.231 187.174 354.912ZM200.367 359.273C199.219 359.273 198.189 359.091 197.277 358.727C196.366 358.353 195.591 357.838 194.953 357.182C194.324 356.525 193.841 355.764 193.504 354.898C193.167 354.023 192.998 353.094 192.998 352.109V351.562C192.998 350.441 193.158 349.416 193.477 348.486C193.796 347.557 194.251 346.75 194.844 346.066C195.445 345.383 196.174 344.859 197.031 344.494C197.888 344.12 198.854 343.934 199.93 343.934C200.978 343.934 201.908 344.107 202.719 344.453C203.53 344.799 204.209 345.292 204.756 345.93C205.312 346.568 205.731 347.333 206.014 348.227C206.296 349.111 206.438 350.095 206.438 351.18V352.82H194.68V350.195H202.568V349.895C202.568 349.348 202.468 348.86 202.268 348.432C202.076 347.994 201.785 347.648 201.393 347.393C201.001 347.137 200.499 347.01 199.889 347.01C199.369 347.01 198.923 347.124 198.549 347.352C198.175 347.579 197.87 347.898 197.633 348.309C197.405 348.719 197.232 349.202 197.113 349.758C197.004 350.305 196.949 350.906 196.949 351.562V352.109C196.949 352.702 197.031 353.249 197.195 353.75C197.368 354.251 197.61 354.684 197.92 355.049C198.239 355.413 198.622 355.696 199.068 355.896C199.524 356.097 200.039 356.197 200.613 356.197C201.324 356.197 201.985 356.061 202.596 355.787C203.215 355.505 203.749 355.081 204.195 354.516L206.109 356.594C205.799 357.04 205.376 357.469 204.838 357.879C204.309 358.289 203.671 358.626 202.924 358.891C202.176 359.146 201.324 359.273 200.367 359.273ZM212.617 347.434V359H208.68V344.207H212.385L212.617 347.434ZM217.074 344.111L217.006 347.762C216.814 347.734 216.582 347.712 216.309 347.693C216.044 347.666 215.803 347.652 215.584 347.652C215.028 347.652 214.545 347.725 214.135 347.871C213.734 348.008 213.396 348.213 213.123 348.486C212.859 348.76 212.658 349.092 212.521 349.484C212.394 349.876 212.321 350.323 212.303 350.824L211.51 350.578C211.51 349.621 211.605 348.742 211.797 347.939C211.988 347.128 212.266 346.422 212.631 345.82C213.005 345.219 213.46 344.754 213.998 344.426C214.536 344.098 215.151 343.934 215.844 343.934C216.062 343.934 216.286 343.952 216.514 343.988C216.742 344.016 216.928 344.057 217.074 344.111ZM233.891 355.664V349.074C233.891 348.6 233.813 348.195 233.658 347.857C233.503 347.511 233.262 347.242 232.934 347.051C232.615 346.859 232.2 346.764 231.689 346.764C231.252 346.764 230.874 346.841 230.555 346.996C230.236 347.142 229.99 347.356 229.816 347.639C229.643 347.912 229.557 348.236 229.557 348.609H225.619C225.619 347.98 225.765 347.383 226.057 346.818C226.348 346.253 226.772 345.757 227.328 345.328C227.884 344.891 228.545 344.549 229.311 344.303C230.085 344.057 230.951 343.934 231.908 343.934C233.057 343.934 234.077 344.125 234.971 344.508C235.864 344.891 236.566 345.465 237.076 346.23C237.596 346.996 237.855 347.953 237.855 349.102V355.432C237.855 356.243 237.906 356.908 238.006 357.428C238.106 357.938 238.252 358.385 238.443 358.768V359H234.465C234.273 358.599 234.128 358.098 234.027 357.496C233.936 356.885 233.891 356.275 233.891 355.664ZM234.41 349.99L234.438 352.219H232.236C231.717 352.219 231.266 352.278 230.883 352.396C230.5 352.515 230.186 352.684 229.939 352.902C229.693 353.112 229.511 353.358 229.393 353.641C229.283 353.923 229.229 354.233 229.229 354.57C229.229 354.908 229.306 355.213 229.461 355.486C229.616 355.751 229.839 355.96 230.131 356.115C230.423 356.261 230.764 356.334 231.156 356.334C231.749 356.334 232.264 356.215 232.701 355.979C233.139 355.742 233.476 355.45 233.713 355.104C233.959 354.757 234.087 354.429 234.096 354.119L235.135 355.787C234.989 356.161 234.788 356.548 234.533 356.949C234.287 357.35 233.973 357.729 233.59 358.084C233.207 358.43 232.747 358.717 232.209 358.945C231.671 359.164 231.033 359.273 230.295 359.273C229.356 359.273 228.504 359.087 227.738 358.713C226.982 358.33 226.38 357.806 225.934 357.141C225.496 356.466 225.277 355.701 225.277 354.844C225.277 354.069 225.423 353.381 225.715 352.779C226.007 352.178 226.435 351.672 227 351.262C227.574 350.842 228.29 350.528 229.146 350.318C230.003 350.1 230.997 349.99 232.127 349.99H234.41ZM249.627 355.773V338H253.592V359H250.023L249.627 355.773ZM240.275 351.781V351.494C240.275 350.364 240.403 349.339 240.658 348.418C240.913 347.488 241.287 346.691 241.779 346.025C242.271 345.36 242.878 344.845 243.598 344.48C244.318 344.116 245.138 343.934 246.059 343.934C246.924 343.934 247.681 344.116 248.328 344.48C248.984 344.845 249.54 345.365 249.996 346.039C250.461 346.704 250.835 347.493 251.117 348.404C251.4 349.307 251.605 350.296 251.732 351.371V352C251.605 353.03 251.4 353.987 251.117 354.871C250.835 355.755 250.461 356.53 249.996 357.195C249.54 357.852 248.984 358.362 248.328 358.727C247.672 359.091 246.906 359.273 246.031 359.273C245.111 359.273 244.29 359.087 243.57 358.713C242.859 358.339 242.258 357.815 241.766 357.141C241.283 356.466 240.913 355.673 240.658 354.762C240.403 353.85 240.275 352.857 240.275 351.781ZM244.213 351.494V351.781C244.213 352.392 244.258 352.962 244.35 353.49C244.45 354.019 244.609 354.488 244.828 354.898C245.056 355.299 245.348 355.614 245.703 355.842C246.068 356.061 246.51 356.17 247.029 356.17C247.704 356.17 248.26 356.02 248.697 355.719C249.135 355.409 249.467 354.985 249.695 354.447C249.932 353.91 250.069 353.29 250.105 352.588V350.797C250.078 350.223 249.996 349.708 249.859 349.252C249.732 348.787 249.54 348.391 249.285 348.062C249.039 347.734 248.729 347.479 248.355 347.297C247.991 347.115 247.558 347.023 247.057 347.023C246.546 347.023 246.109 347.142 245.744 347.379C245.38 347.607 245.083 347.921 244.855 348.322C244.637 348.723 244.473 349.197 244.363 349.744C244.263 350.282 244.213 350.865 244.213 351.494ZM265.404 355.773V338H269.369V359H265.801L265.404 355.773ZM256.053 351.781V351.494C256.053 350.364 256.18 349.339 256.436 348.418C256.691 347.488 257.064 346.691 257.557 346.025C258.049 345.36 258.655 344.845 259.375 344.48C260.095 344.116 260.915 343.934 261.836 343.934C262.702 343.934 263.458 344.116 264.105 344.48C264.762 344.845 265.318 345.365 265.773 346.039C266.238 346.704 266.612 347.493 266.895 348.404C267.177 349.307 267.382 350.296 267.51 351.371V352C267.382 353.03 267.177 353.987 266.895 354.871C266.612 355.755 266.238 356.53 265.773 357.195C265.318 357.852 264.762 358.362 264.105 358.727C263.449 359.091 262.684 359.273 261.809 359.273C260.888 359.273 260.068 359.087 259.348 358.713C258.637 358.339 258.035 357.815 257.543 357.141C257.06 356.466 256.691 355.673 256.436 354.762C256.18 353.85 256.053 352.857 256.053 351.781ZM259.99 351.494V351.781C259.99 352.392 260.036 352.962 260.127 353.49C260.227 354.019 260.387 354.488 260.605 354.898C260.833 355.299 261.125 355.614 261.48 355.842C261.845 356.061 262.287 356.17 262.807 356.17C263.481 356.17 264.037 356.02 264.475 355.719C264.912 355.409 265.245 354.985 265.473 354.447C265.71 353.91 265.846 353.29 265.883 352.588V350.797C265.855 350.223 265.773 349.708 265.637 349.252C265.509 348.787 265.318 348.391 265.062 348.062C264.816 347.734 264.507 347.479 264.133 347.297C263.768 347.115 263.335 347.023 262.834 347.023C262.324 347.023 261.886 347.142 261.521 347.379C261.157 347.607 260.861 347.921 260.633 348.322C260.414 348.723 260.25 349.197 260.141 349.744C260.04 350.282 259.99 350.865 259.99 351.494ZM279.254 359.273C278.105 359.273 277.076 359.091 276.164 358.727C275.253 358.353 274.478 357.838 273.84 357.182C273.211 356.525 272.728 355.764 272.391 354.898C272.053 354.023 271.885 353.094 271.885 352.109V351.562C271.885 350.441 272.044 349.416 272.363 348.486C272.682 347.557 273.138 346.75 273.73 346.066C274.332 345.383 275.061 344.859 275.918 344.494C276.775 344.12 277.741 343.934 278.816 343.934C279.865 343.934 280.794 344.107 281.605 344.453C282.417 344.799 283.096 345.292 283.643 345.93C284.199 346.568 284.618 347.333 284.9 348.227C285.183 349.111 285.324 350.095 285.324 351.18V352.82H273.566V350.195H281.455V349.895C281.455 349.348 281.355 348.86 281.154 348.432C280.963 347.994 280.671 347.648 280.279 347.393C279.887 347.137 279.386 347.01 278.775 347.01C278.256 347.01 277.809 347.124 277.436 347.352C277.062 347.579 276.757 347.898 276.52 348.309C276.292 348.719 276.118 349.202 276 349.758C275.891 350.305 275.836 350.906 275.836 351.562V352.109C275.836 352.702 275.918 353.249 276.082 353.75C276.255 354.251 276.497 354.684 276.807 355.049C277.126 355.413 277.508 355.696 277.955 355.896C278.411 356.097 278.926 356.197 279.5 356.197C280.211 356.197 280.872 356.061 281.482 355.787C282.102 355.505 282.635 355.081 283.082 354.516L284.996 356.594C284.686 357.04 284.262 357.469 283.725 357.879C283.196 358.289 282.558 358.626 281.811 358.891C281.063 359.146 280.211 359.273 279.254 359.273ZM296.303 355.773V338H300.268V359H296.699L296.303 355.773ZM286.951 351.781V351.494C286.951 350.364 287.079 349.339 287.334 348.418C287.589 347.488 287.963 346.691 288.455 346.025C288.947 345.36 289.553 344.845 290.273 344.48C290.993 344.116 291.814 343.934 292.734 343.934C293.6 343.934 294.357 344.116 295.004 344.48C295.66 344.845 296.216 345.365 296.672 346.039C297.137 346.704 297.51 347.493 297.793 348.404C298.076 349.307 298.281 350.296 298.408 351.371V352C298.281 353.03 298.076 353.987 297.793 354.871C297.51 355.755 297.137 356.53 296.672 357.195C296.216 357.852 295.66 358.362 295.004 358.727C294.348 359.091 293.582 359.273 292.707 359.273C291.786 359.273 290.966 359.087 290.246 358.713C289.535 358.339 288.934 357.815 288.441 357.141C287.958 356.466 287.589 355.673 287.334 354.762C287.079 353.85 286.951 352.857 286.951 351.781ZM290.889 351.494V351.781C290.889 352.392 290.934 352.962 291.025 353.49C291.126 354.019 291.285 354.488 291.504 354.898C291.732 355.299 292.023 355.614 292.379 355.842C292.743 356.061 293.186 356.17 293.705 356.17C294.38 356.17 294.936 356.02 295.373 355.719C295.811 355.409 296.143 354.985 296.371 354.447C296.608 353.91 296.745 353.29 296.781 352.588V350.797C296.754 350.223 296.672 349.708 296.535 349.252C296.408 348.787 296.216 348.391 295.961 348.062C295.715 347.734 295.405 347.479 295.031 347.297C294.667 347.115 294.234 347.023 293.732 347.023C293.222 347.023 292.785 347.142 292.42 347.379C292.055 347.607 291.759 347.921 291.531 348.322C291.312 348.723 291.148 349.197 291.039 349.744C290.939 350.282 290.889 350.865 290.889 351.494ZM162.291 388.791C162.291 388.436 162.236 388.117 162.127 387.834C162.027 387.542 161.835 387.278 161.553 387.041C161.27 386.795 160.874 386.553 160.363 386.316C159.853 386.079 159.192 385.833 158.381 385.578C157.479 385.286 156.622 384.958 155.811 384.594C155.008 384.229 154.298 383.805 153.678 383.322C153.067 382.83 152.584 382.26 152.229 381.613C151.882 380.966 151.709 380.214 151.709 379.357C151.709 378.528 151.891 377.776 152.256 377.102C152.62 376.418 153.131 375.835 153.787 375.352C154.443 374.859 155.218 374.481 156.111 374.217C157.014 373.952 158.003 373.82 159.078 373.82C160.546 373.82 161.826 374.085 162.92 374.613C164.014 375.142 164.861 375.867 165.463 376.787C166.074 377.708 166.379 378.76 166.379 379.945H162.305C162.305 379.362 162.182 378.852 161.936 378.414C161.699 377.967 161.334 377.617 160.842 377.361C160.359 377.106 159.748 376.979 159.01 376.979C158.299 376.979 157.706 377.088 157.232 377.307C156.758 377.516 156.403 377.803 156.166 378.168C155.929 378.523 155.811 378.924 155.811 379.371C155.811 379.708 155.893 380.014 156.057 380.287C156.23 380.561 156.485 380.816 156.822 381.053C157.16 381.29 157.574 381.513 158.066 381.723C158.559 381.932 159.128 382.137 159.775 382.338C160.86 382.666 161.812 383.035 162.633 383.445C163.462 383.855 164.155 384.316 164.711 384.826C165.267 385.337 165.686 385.915 165.969 386.562C166.251 387.21 166.393 387.943 166.393 388.764C166.393 389.63 166.224 390.404 165.887 391.088C165.549 391.771 165.062 392.35 164.424 392.824C163.786 393.298 163.025 393.658 162.141 393.904C161.257 394.15 160.268 394.273 159.174 394.273C158.189 394.273 157.219 394.146 156.262 393.891C155.305 393.626 154.434 393.23 153.65 392.701C152.876 392.173 152.256 391.498 151.791 390.678C151.326 389.857 151.094 388.887 151.094 387.766H155.209C155.209 388.385 155.305 388.91 155.496 389.338C155.688 389.766 155.956 390.113 156.303 390.377C156.658 390.641 157.077 390.833 157.561 390.951C158.053 391.07 158.59 391.129 159.174 391.129C159.885 391.129 160.468 391.029 160.924 390.828C161.389 390.628 161.73 390.35 161.949 389.994C162.177 389.639 162.291 389.238 162.291 388.791ZM177.686 390.459V379.207H181.623V394H177.918L177.686 390.459ZM178.123 387.424L179.285 387.396C179.285 388.381 179.171 389.297 178.943 390.145C178.715 390.983 178.374 391.712 177.918 392.332C177.462 392.943 176.888 393.421 176.195 393.768C175.503 394.105 174.687 394.273 173.748 394.273C173.028 394.273 172.363 394.173 171.752 393.973C171.15 393.763 170.631 393.439 170.193 393.002C169.765 392.555 169.428 391.986 169.182 391.293C168.945 390.591 168.826 389.748 168.826 388.764V379.207H172.764V388.791C172.764 389.229 172.814 389.598 172.914 389.898C173.023 390.199 173.174 390.445 173.365 390.637C173.557 390.828 173.78 390.965 174.035 391.047C174.299 391.129 174.591 391.17 174.91 391.17C175.721 391.17 176.359 391.006 176.824 390.678C177.298 390.35 177.631 389.903 177.822 389.338C178.023 388.764 178.123 388.126 178.123 387.424ZM190.742 391.197C191.225 391.197 191.654 391.106 192.027 390.924C192.401 390.732 192.693 390.468 192.902 390.131C193.121 389.785 193.235 389.379 193.244 388.914H196.949C196.94 389.953 196.662 390.878 196.115 391.689C195.568 392.492 194.835 393.125 193.914 393.59C192.993 394.046 191.964 394.273 190.824 394.273C189.676 394.273 188.673 394.082 187.816 393.699C186.969 393.316 186.262 392.788 185.697 392.113C185.132 391.43 184.708 390.637 184.426 389.734C184.143 388.823 184.002 387.848 184.002 386.809V386.412C184.002 385.364 184.143 384.389 184.426 383.486C184.708 382.575 185.132 381.782 185.697 381.107C186.262 380.424 186.969 379.891 187.816 379.508C188.664 379.125 189.658 378.934 190.797 378.934C192.009 378.934 193.071 379.166 193.982 379.631C194.903 380.096 195.623 380.761 196.143 381.627C196.671 382.484 196.94 383.5 196.949 384.676H193.244C193.235 384.184 193.13 383.737 192.93 383.336C192.738 382.935 192.456 382.616 192.082 382.379C191.717 382.133 191.266 382.01 190.729 382.01C190.154 382.01 189.685 382.133 189.32 382.379C188.956 382.616 188.673 382.944 188.473 383.363C188.272 383.773 188.131 384.243 188.049 384.771C187.976 385.291 187.939 385.838 187.939 386.412V386.809C187.939 387.383 187.976 387.934 188.049 388.463C188.122 388.992 188.258 389.461 188.459 389.871C188.669 390.281 188.956 390.605 189.32 390.842C189.685 391.079 190.159 391.197 190.742 391.197ZM205.344 391.197C205.827 391.197 206.255 391.106 206.629 390.924C207.003 390.732 207.294 390.468 207.504 390.131C207.723 389.785 207.837 389.379 207.846 388.914H211.551C211.542 389.953 211.264 390.878 210.717 391.689C210.17 392.492 209.436 393.125 208.516 393.59C207.595 394.046 206.565 394.273 205.426 394.273C204.277 394.273 203.275 394.082 202.418 393.699C201.57 393.316 200.864 392.788 200.299 392.113C199.734 391.43 199.31 390.637 199.027 389.734C198.745 388.823 198.604 387.848 198.604 386.809V386.412C198.604 385.364 198.745 384.389 199.027 383.486C199.31 382.575 199.734 381.782 200.299 381.107C200.864 380.424 201.57 379.891 202.418 379.508C203.266 379.125 204.259 378.934 205.398 378.934C206.611 378.934 207.673 379.166 208.584 379.631C209.505 380.096 210.225 380.761 210.744 381.627C211.273 382.484 211.542 383.5 211.551 384.676H207.846C207.837 384.184 207.732 383.737 207.531 383.336C207.34 382.935 207.057 382.616 206.684 382.379C206.319 382.133 205.868 382.01 205.33 382.01C204.756 382.01 204.286 382.133 203.922 382.379C203.557 382.616 203.275 382.944 203.074 383.363C202.874 383.773 202.732 384.243 202.65 384.771C202.577 385.291 202.541 385.838 202.541 386.412V386.809C202.541 387.383 202.577 387.934 202.65 388.463C202.723 388.992 202.86 389.461 203.061 389.871C203.27 390.281 203.557 390.605 203.922 390.842C204.286 391.079 204.76 391.197 205.344 391.197ZM220.643 394.273C219.494 394.273 218.464 394.091 217.553 393.727C216.641 393.353 215.867 392.838 215.229 392.182C214.6 391.525 214.117 390.764 213.779 389.898C213.442 389.023 213.273 388.094 213.273 387.109V386.562C213.273 385.441 213.433 384.416 213.752 383.486C214.071 382.557 214.527 381.75 215.119 381.066C215.721 380.383 216.45 379.859 217.307 379.494C218.163 379.12 219.13 378.934 220.205 378.934C221.253 378.934 222.183 379.107 222.994 379.453C223.805 379.799 224.484 380.292 225.031 380.93C225.587 381.568 226.007 382.333 226.289 383.227C226.572 384.111 226.713 385.095 226.713 386.18V387.82H214.955V385.195H222.844V384.895C222.844 384.348 222.743 383.86 222.543 383.432C222.352 382.994 222.06 382.648 221.668 382.393C221.276 382.137 220.775 382.01 220.164 382.01C219.645 382.01 219.198 382.124 218.824 382.352C218.451 382.579 218.145 382.898 217.908 383.309C217.68 383.719 217.507 384.202 217.389 384.758C217.279 385.305 217.225 385.906 217.225 386.562V387.109C217.225 387.702 217.307 388.249 217.471 388.75C217.644 389.251 217.885 389.684 218.195 390.049C218.514 390.413 218.897 390.696 219.344 390.896C219.799 391.097 220.314 391.197 220.889 391.197C221.6 391.197 222.26 391.061 222.871 390.787C223.491 390.505 224.024 390.081 224.471 389.516L226.385 391.594C226.075 392.04 225.651 392.469 225.113 392.879C224.585 393.289 223.947 393.626 223.199 393.891C222.452 394.146 221.6 394.273 220.643 394.273ZM236.953 389.912C236.953 389.63 236.871 389.374 236.707 389.146C236.543 388.919 236.238 388.709 235.791 388.518C235.354 388.317 234.72 388.135 233.891 387.971C233.143 387.807 232.446 387.602 231.799 387.355C231.161 387.1 230.605 386.795 230.131 386.439C229.666 386.084 229.301 385.665 229.037 385.182C228.773 384.689 228.641 384.129 228.641 383.5C228.641 382.88 228.773 382.297 229.037 381.75C229.311 381.203 229.698 380.72 230.199 380.301C230.71 379.872 231.329 379.54 232.059 379.303C232.797 379.057 233.626 378.934 234.547 378.934C235.832 378.934 236.935 379.139 237.855 379.549C238.785 379.959 239.496 380.524 239.988 381.244C240.49 381.955 240.74 382.766 240.74 383.678H236.803C236.803 383.295 236.721 382.953 236.557 382.652C236.402 382.342 236.156 382.101 235.818 381.928C235.49 381.745 235.062 381.654 234.533 381.654C234.096 381.654 233.717 381.732 233.398 381.887C233.079 382.033 232.833 382.233 232.66 382.488C232.496 382.734 232.414 383.008 232.414 383.309C232.414 383.536 232.46 383.742 232.551 383.924C232.651 384.097 232.811 384.257 233.029 384.402C233.248 384.548 233.531 384.685 233.877 384.812C234.232 384.931 234.67 385.04 235.189 385.141C236.256 385.359 237.208 385.646 238.047 386.002C238.885 386.348 239.551 386.822 240.043 387.424C240.535 388.016 240.781 388.796 240.781 389.762C240.781 390.418 240.635 391.02 240.344 391.566C240.052 392.113 239.633 392.592 239.086 393.002C238.539 393.403 237.883 393.717 237.117 393.945C236.361 394.164 235.508 394.273 234.561 394.273C233.184 394.273 232.018 394.027 231.061 393.535C230.113 393.043 229.393 392.419 228.9 391.662C228.417 390.896 228.176 390.113 228.176 389.311H231.908C231.926 389.848 232.063 390.281 232.318 390.609C232.583 390.938 232.915 391.174 233.316 391.32C233.727 391.466 234.169 391.539 234.643 391.539C235.153 391.539 235.577 391.471 235.914 391.334C236.251 391.188 236.507 390.997 236.68 390.76C236.862 390.514 236.953 390.231 236.953 389.912ZM251.336 389.912C251.336 389.63 251.254 389.374 251.09 389.146C250.926 388.919 250.62 388.709 250.174 388.518C249.736 388.317 249.103 388.135 248.273 387.971C247.526 387.807 246.829 387.602 246.182 387.355C245.544 387.1 244.988 386.795 244.514 386.439C244.049 386.084 243.684 385.665 243.42 385.182C243.156 384.689 243.023 384.129 243.023 383.5C243.023 382.88 243.156 382.297 243.42 381.75C243.693 381.203 244.081 380.72 244.582 380.301C245.092 379.872 245.712 379.54 246.441 379.303C247.18 379.057 248.009 378.934 248.93 378.934C250.215 378.934 251.318 379.139 252.238 379.549C253.168 379.959 253.879 380.524 254.371 381.244C254.872 381.955 255.123 382.766 255.123 383.678H251.186C251.186 383.295 251.104 382.953 250.939 382.652C250.785 382.342 250.538 382.101 250.201 381.928C249.873 381.745 249.445 381.654 248.916 381.654C248.479 381.654 248.1 381.732 247.781 381.887C247.462 382.033 247.216 382.233 247.043 382.488C246.879 382.734 246.797 383.008 246.797 383.309C246.797 383.536 246.842 383.742 246.934 383.924C247.034 384.097 247.193 384.257 247.412 384.402C247.631 384.548 247.913 384.685 248.26 384.812C248.615 384.931 249.053 385.04 249.572 385.141C250.639 385.359 251.591 385.646 252.43 386.002C253.268 386.348 253.934 386.822 254.426 387.424C254.918 388.016 255.164 388.796 255.164 389.762C255.164 390.418 255.018 391.02 254.727 391.566C254.435 392.113 254.016 392.592 253.469 393.002C252.922 393.403 252.266 393.717 251.5 393.945C250.743 394.164 249.891 394.273 248.943 394.273C247.567 394.273 246.4 394.027 245.443 393.535C244.495 393.043 243.775 392.419 243.283 391.662C242.8 390.896 242.559 390.113 242.559 389.311H246.291C246.309 389.848 246.446 390.281 246.701 390.609C246.965 390.938 247.298 391.174 247.699 391.32C248.109 391.466 248.551 391.539 249.025 391.539C249.536 391.539 249.96 391.471 250.297 391.334C250.634 391.188 250.889 390.997 251.062 390.76C251.245 390.514 251.336 390.231 251.336 389.912ZM262.738 394H258.773V377.895C258.773 376.773 258.992 375.83 259.43 375.064C259.876 374.29 260.501 373.706 261.303 373.314C262.114 372.913 263.076 372.713 264.188 372.713C264.552 372.713 264.903 372.74 265.24 372.795C265.577 372.84 265.906 372.9 266.225 372.973L266.184 375.939C266.01 375.894 265.828 375.862 265.637 375.844C265.445 375.826 265.222 375.816 264.967 375.816C264.493 375.816 264.087 375.898 263.75 376.062C263.422 376.217 263.171 376.45 262.998 376.76C262.825 377.07 262.738 377.448 262.738 377.895V394ZM265.691 379.207V381.996H256.572V379.207H265.691ZM276.506 390.459V379.207H280.443V394H276.738L276.506 390.459ZM276.943 387.424L278.105 387.396C278.105 388.381 277.992 389.297 277.764 390.145C277.536 390.983 277.194 391.712 276.738 392.332C276.283 392.943 275.708 393.421 275.016 393.768C274.323 394.105 273.507 394.273 272.568 394.273C271.848 394.273 271.183 394.173 270.572 393.973C269.971 393.763 269.451 393.439 269.014 393.002C268.585 392.555 268.248 391.986 268.002 391.293C267.765 390.591 267.646 389.748 267.646 388.764V379.207H271.584V388.791C271.584 389.229 271.634 389.598 271.734 389.898C271.844 390.199 271.994 390.445 272.186 390.637C272.377 390.828 272.6 390.965 272.855 391.047C273.12 391.129 273.411 391.17 273.73 391.17C274.542 391.17 275.18 391.006 275.645 390.678C276.118 390.35 276.451 389.903 276.643 389.338C276.843 388.764 276.943 388.126 276.943 387.424ZM287.607 373V394H283.656V373H287.607ZM295.018 373V394H291.066V373H295.018ZM302.66 392.332L306.584 379.207H310.809L304.861 396.229C304.734 396.602 304.561 397.003 304.342 397.432C304.132 397.86 303.845 398.266 303.48 398.648C303.125 399.04 302.674 399.359 302.127 399.605C301.589 399.852 300.928 399.975 300.145 399.975C299.771 399.975 299.465 399.952 299.229 399.906C298.992 399.861 298.709 399.797 298.381 399.715V396.83C298.481 396.83 298.586 396.83 298.695 396.83C298.805 396.839 298.91 396.844 299.01 396.844C299.529 396.844 299.953 396.785 300.281 396.666C300.609 396.548 300.874 396.365 301.074 396.119C301.275 395.882 301.434 395.572 301.553 395.189L302.66 392.332ZM301.02 379.207L304.232 389.926L304.793 394.096L302.113 394.383L296.795 379.207H301.02Z" fill="#1C1C1C"/>
<rect x="145" y="332" width="185" height="93" fill="white"/>
<defs>
<filter id="filter0_d_323_999" x="14" y="35" width="431" height="475" filterUnits="userSpaceOnUse" color-interpolation-filters="sRGB">
<feFlood flood-opacity="0" result="BackgroundImageFix"/>
<feColorMatrix in="SourceAlpha" type="matrix" values="0 0 0 0 0 0 0 0 0 0 0 0 0 0 0 0 0 0 127 0" result="hardAlpha"/>
<feOffset dy="2"/>
<feGaussianBlur stdDeviation="2"/>
<feComposite in2="hardAlpha" operator="out"/>
<feColorMatrix type="matrix" values="0 0 0 0 0 0 0 0 0 0 0 0 0 0 0 0 0 0 0.15 0"/>
<feBlend mode="normal" in2="BackgroundImageFix" result="effect1_dropShadow_323_999"/>
<feBlend mode="normal" in="SourceGraphic" in2="effect1_dropShadow_323_999" result="shape"/>
</filter>
<filter id="filter1_d_323_999" x="7" y="13" width="445" height="485" filterUnits="userSpaceOnUse" color-interpolation-filters="sRGB">
<feFlood flood-opacity="0" result="BackgroundImageFix"/>
<feColorMatrix in="SourceAlpha" type="matrix" values="0 0 0 0 0 0 0 0 0 0 0 0 0 0 0 0 0 0 127 0" result="hardAlpha"/>
<feOffset dy="2"/>
<feGaussianBlur stdDeviation="2"/>
<feComposite in2="hardAlpha" operator="out"/>
<feColorMatrix type="matrix" values="0 0 0 0 0 0 0 0 0 0 0 0 0 0 0 0 0 0 0.15 0"/>
<feBlend mode="normal" in2="BackgroundImageFix" result="effect1_dropShadow_323_999"/>
<feBlend mode="normal" in="SourceGraphic" in2="effect1_dropShadow_323_999" result="shape"/>
</filter>
<filter id="filter2_d_323_999" x="0" y="0" width="459" height="485" filterUnits="userSpaceOnUse" color-interpolation-filters="sRGB">
<feFlood flood-opacity="0" result="BackgroundImageFix"/>
<feColorMatrix in="SourceAlpha" type="matrix" values="0 0 0 0 0 0 0 0 0 0 0 0 0 0 0 0 0 0 127 0" result="hardAlpha"/>
<feOffset dy="2"/>
<feGaussianBlur stdDeviation="2"/>
<feComposite in2="hardAlpha" operator="out"/>
<feColorMatrix type="matrix" values="0 0 0 0 0 0 0 0 0 0 0 0 0 0 0 0 0 0 0.15 0"/>
<feBlend mode="normal" in2="BackgroundImageFix" result="effect1_dropShadow_323_999"/>
<feBlend mode="normal" in="SourceGraphic" in2="effect1_dropShadow_323_999" result="shape"/>
</filter>
<filter id="filter3_dd_323_999" x="136.32" y="62.6328" width="190.697" height="190.697" filterUnits="userSpaceOnUse" color-interpolation-filters="sRGB">
<feFlood flood-opacity="0" result="BackgroundImageFix"/>
<feColorMatrix in="SourceAlpha" type="matrix" values="0 0 0 0 0 0 0 0 0 0 0 0 0 0 0 0 0 0 127 0" result="hardAlpha"/>
<feOffset dx="4" dy="4"/>
<feGaussianBlur stdDeviation="2"/>
<feComposite in2="hardAlpha" operator="out"/>
<feColorMatrix type="matrix" values="0 0 0 0 0.6875 0 0 0 0 0.6875 0 0 0 0 0.6875 0 0 0 0.5 0"/>
<feBlend mode="normal" in2="BackgroundImageFix" result="effect1_dropShadow_323_999"/>
<feColorMatrix in="SourceAlpha" type="matrix" values="0 0 0 0 0 0 0 0 0 0 0 0 0 0 0 0 0 0 127 0" result="hardAlpha"/>
<feOffset dx="-2" dy="-2"/>
<feGaussianBlur stdDeviation="2"/>
<feComposite in2="hardAlpha" operator="out"/>
<feColorMatrix type="matrix" values="0 0 0 0 0.716667 0 0 0 0 0.716667 0 0 0 0 0.716667 0 0 0 0.5 0"/>
<feBlend mode="normal" in2="effect1_dropShadow_323_999" result="effect2_dropShadow_323_999"/>
<feBlend mode="normal" in="SourceGraphic" in2="effect2_dropShadow_323_999" result="shape"/>
</filter>
<filter id="filter4_dd_323_999" x="117" y="43" width="228" height="228" filterUnits="userSpaceOnUse" color-interpolation-filters="sRGB">
<feFlood flood-opacity="0" result="BackgroundImageFix"/>
<feColorMatrix in="SourceAlpha" type="matrix" values="0 0 0 0 0 0 0 0 0 0 0 0 0 0 0 0 0 0 127 0" result="hardAlpha"/>
<feOffset dx="4" dy="4"/>
<feGaussianBlur stdDeviation="2"/>
<feComposite in2="hardAlpha" operator="out"/>
<feColorMatrix type="matrix" values="0 0 0 0 0.6875 0 0 0 0 0.6875 0 0 0 0 0.6875 0 0 0 0.5 0"/>
<feBlend mode="normal" in2="BackgroundImageFix" result="effect1_dropShadow_323_999"/>
<feColorMatrix in="SourceAlpha" type="matrix" values="0 0 0 0 0 0 0 0 0 0 0 0 0 0 0 0 0 0 127 0" result="hardAlpha"/>
<feOffset dx="-2" dy="-2"/>
<feGaussianBlur stdDeviation="2"/>
<feComposite in2="hardAlpha" operator="out"/>
<feColorMatrix type="matrix" values="0 0 0 0 0.716667 0 0 0 0 0.716667 0 0 0 0 0.716667 0 0 0 0.5 0"/>
<feBlend mode="normal" in2="effect1_dropShadow_323_999" result="effect2_dropShadow_323_999"/>
<feBlend mode="normal" in="SourceGraphic" in2="effect2_dropShadow_323_999" result="shape"/>
</filter>
<linearGradient id="paint0_linear_323_999" x1="230.669" y1="68.6328" x2="230.669" y2="282.083" gradientUnits="userSpaceOnUse">
<stop stop-color="#5FCA5D"/>
<stop offset="1" stop-color="#66DA64"/>
</linearGradient>
</defs>
</svg>
